<svg id="btn-social-google" xmlns="http://www.w3.org/2000/svg" width="40.371" height="36.878" viewBox="0 0 40.371 36.878">
  <rect id="Rectangle_2275" data-name="Rectangle 2275" width="40.371" height="36.878" rx="5" fill="#f2f2f2"/>
  <g id="Group_745" data-name="Group 745" transform="translate(11.152 9.593)">
    <path id="Path_209" data-name="Path 209" d="M17.556,16A5.3,5.3,0,0,1,7.307,17.753L4.285,20.12A9.125,9.125,0,0,0,16.48,23.828,8.819,8.819,0,0,0,21.305,16" transform="translate(-3.238 -7.155)" fill="#00ac47"/>
    <path id="Path_210" data-name="Path 210" d="M22.715,16A5.133,5.133,0,0,1,20.5,20.2l2.988,2.34A8.734,8.734,0,0,0,26.465,16" transform="translate(-8.398 -7.155)" fill="#4285f4"/>
    <path id="Path_211" data-name="Path 211" d="M6.5,13.948A5.038,5.038,0,0,1,6.819,12.2L3.8,9.828a8.632,8.632,0,0,0,0,8.24L6.819,15.7A5.038,5.038,0,0,1,6.5,13.948Z" transform="translate(-2.75 -5.103)" fill="#ffba00"/>
    <path id="Path_212" data-name="Path 212" d="M8.718,13.374Z" transform="translate(-4.649 -6.282)" fill="#2ab2db"/>
    <path id="Path_213" data-name="Path 213" d="M12.272,6.421a5.318,5.318,0,0,1,3.107,1l2.768-2.53a9.144,9.144,0,0,0-12.707.921A8.8,8.8,0,0,0,4.285,7.475L7.307,9.842A5.283,5.283,0,0,1,12.272,6.421Z" transform="translate(-3.238 -2.75)" fill="#ea4435"/>
    <path id="Path_214" data-name="Path 214" d="M8.718,18.626Z" transform="translate(-4.649 -8.028)" fill="#2ab2db"/>
    <path id="Path_215" data-name="Path 215" d="M25.193,14.668v.668l-1.534,2.336H16.5V14h8.011A.675.675,0,0,1,25.193,14.668Z" transform="translate(-7.126 -6.49)" fill="#4285f4"/>
  </g>
</svg>
