<svg xmlns="http://www.w3.org/2000/svg" width="34.516" height="36.368" viewBox="0 0 34.516 36.368">
  <g id="cate-item-5" transform="translate(-225.984 -702.395)">
    <path id="Path_515" data-name="Path 515" d="M-903.118,1711.731l-1.066,10.724a.431.431,0,0,0,.429.474h8.342a.431.431,0,0,1,.352.681l-12.315,17.343a.431.431,0,0,1-.781-.291l1.183-12.255a.431.431,0,0,0-.429-.473h-6.942a.431.431,0,0,1-.356-.675l10.8-15.814A.432.432,0,0,1-903.118,1711.731Z" transform="translate(1141.778 -1003.397)" fill="none" stroke="#373737" stroke-linecap="round" stroke-linejoin="round" stroke-width="2"/>
    <path id="Path_516" data-name="Path 516" d="M-840.111,1701.88l8.523-12.477a.431.431,0,0,1,.785.286l-1.065,10.724a.429.429,0,0,0,.429.473h8.341a.433.433,0,0,1,.352.683l-12.315,17.341a.431.431,0,0,1-.781-.29l.714-7.3" transform="translate(1082.148 -985.793)" fill="none" stroke="#373737" stroke-linecap="round" stroke-linejoin="round" stroke-width="2"/>
  </g>
</svg>
