<svg xmlns="http://www.w3.org/2000/svg" width="32" height="31.988" viewBox="0 0 32 31.988">
  <g id="cate-item-3" transform="translate(1825.07 -1378.262)">
    <path id="Path_634" data-name="Path 634" d="M-1768.02,1428.161l-3.266,22.861a17.431,17.431,0,0,0-11.607,0,20.1,20.1,0,0,1-11.807-.3l.64-4.477a17.9,17.9,0,0,0,7.847-.57,17.443,17.443,0,0,1,11.607,0l2.632-18.424A14.744,14.744,0,0,1-1768.02,1428.161Z" transform="translate(-26.05 -42.537)" fill="none" stroke="#373737" stroke-linecap="round" stroke-linejoin="round" stroke-width="2"/>
    <path id="Path_635" data-name="Path 635" d="M-1797.389,1380.276l-.635,4.437-2.632,18.424a17.439,17.439,0,0,0-11.607,0,17.9,17.9,0,0,1-7.847.57,25.918,25.918,0,0,1-3.96-.871l3.265-22.862a20.105,20.105,0,0,0,11.808.3A17.44,17.44,0,0,1-1797.389,1380.276Z" transform="translate(0)" fill="none" stroke="#373737" stroke-linecap="round" stroke-linejoin="round" stroke-width="2"/>
  </g>
</svg>
