<svg xmlns="http://www.w3.org/2000/svg" width="36.407" height="35.54" viewBox="0 0 36.407 35.54">
  <g id="cate-item-6" transform="translate(-226 -760.184)">
    <path id="Path_522" data-name="Path 522" d="M7.481,30.713,13.022,35a5.5,5.5,0,0,0,3.4,1.072h6.792a5.368,5.368,0,0,0,5-3.753L32.5,19.274a3.349,3.349,0,0,0-3.4-4.647H21.958a1.8,1.8,0,0,1-1.787-2.145l.894-5.719a3.526,3.526,0,0,0-2.323-3.932,3.569,3.569,0,0,0-3.932,1.251l-7.328,10.9" transform="translate(228.634 758.649)" fill="none" stroke="#373737" stroke-miterlimit="10" stroke-width="2"/>
    <path id="Path_523" data-name="Path 523" d="M2.381,27.562V10.047c0-2.5,1.072-3.4,3.575-3.4H7.743c2.5,0,3.575.894,3.575,3.4V27.562c0,2.5-1.072,3.4-3.575,3.4H5.956C3.453,30.958,2.381,30.065,2.381,27.562Z" transform="translate(224.619 761.8)" fill="none" stroke="#373737" stroke-linecap="round" stroke-linejoin="round" stroke-width="2"/>
  </g>
</svg>
