<svg xmlns="http://www.w3.org/2000/svg" width="44.193" height="44.391" viewBox="0 0 44.193 44.391">
  <g id="cate-item-1" transform="translate(-39 -647.791)">
    <path id="Path_596" data-name="Path 596" d="M599.31,1482.354v26.92a1.515,1.515,0,0,1-1.514,1.515H574.863a1.515,1.515,0,0,1-1.515-1.515v-26.92" transform="translate(-525.282 -819.607)" fill="none" stroke="#373737" stroke-linecap="round" stroke-linejoin="round" stroke-width="2"/>
    <g id="Group_1791" data-name="Group 1791" transform="translate(40 650.57)">
      <path id="Path_597" data-name="Path 597" d="M623.64,1474.373h-1.254v-9.743" transform="translate(-602.544 -1456.709)" fill="none" stroke="#373737" stroke-linecap="round" stroke-linejoin="round" stroke-width="2"/>
      <path id="Path_598" data-name="Path 598" d="M596,1434.024a12.243,12.243,0,0,0,3.431,6.707l2.905-1.166c-1.805-1.9-3.168-3.4-3.678-5.542l-.557-2.38Z" transform="translate(-582.495 -1431.644)" fill="none" stroke="#373737" stroke-linecap="round" stroke-linejoin="round" stroke-width="2"/>
      <path id="Path_599" data-name="Path 599" d="M553.262,1441.554l-8.685,2.674-4.821,13.46,8.067,3.493" transform="translate(-539.756 -1439.174)" fill="none" stroke="#373737" stroke-linecap="round" stroke-linejoin="round" stroke-width="2"/>
    </g>
    <g id="Group_1792" data-name="Group 1792" transform="translate(55.608 648.791)">
      <path id="Path_600" data-name="Path 600" d="M627.61,1474.373h1.254v-9.743" transform="translate(-622.121 -1454.929)" fill="none" stroke="#373737" stroke-linecap="round" stroke-linejoin="round" stroke-width="2"/>
      <path id="Path_601" data-name="Path 601" d="M610.237,1426.865a8.645,8.645,0,0,1,4.938,1.528l.556-2.38a9.356,9.356,0,0,0-10.977,0l.556,2.38A8.611,8.611,0,0,1,610.237,1426.865Z" transform="translate(-604.753 -1424.234)" fill="none" stroke="#373737" stroke-linecap="round" stroke-linejoin="round" stroke-width="2"/>
      <path id="Path_602" data-name="Path 602" d="M639.17,1434.024a12.243,12.243,0,0,1-3.431,6.707l-2.905-1.166c1.805-1.9,3.168-3.4,3.678-5.542l.556-2.38Z" transform="translate(-626.091 -1429.865)" fill="none" stroke="#373737" stroke-linecap="round" stroke-linejoin="round" stroke-width="2"/>
      <path id="Path_603" data-name="Path 603" d="M659.219,1441.554l8.685,2.674,4.821,13.46-8.067,3.493" transform="translate(-646.14 -1437.395)" fill="none" stroke="#373737" stroke-linecap="round" stroke-linejoin="round" stroke-width="2"/>
    </g>
  </g>
</svg>
