<svg xmlns="http://www.w3.org/2000/svg" width="59" height="16" viewBox="0 0 59 16">
  <g id="channel-shoppe" transform="translate(-10964 -1792)">
    <rect id="Rectangle_3111" data-name="Rectangle 3111" width="59" height="16" rx="3" transform="translate(10964 1792)" fill="#373737"/>
    <g id="Group_5226" data-name="Group 5226" transform="translate(8081.111 4064.771)">
      <g id="Group_5220" data-name="Group 5220" transform="translate(2926.064 -2267.021)">
        <path id="Path_2627" data-name="Path 2627" d="M3016.209-2255.007a2.812,2.812,0,0,0-.9-1.768,3,3,0,0,0-4.208.534,3.027,3.027,0,0,0-.534,2.355,2.58,2.58,0,0,0,1.846,2.272,4.38,4.38,0,0,0,3.452-.484.426.426,0,0,0,.154-.609.482.482,0,0,0-.606-.251c-.111.043-.215.108-.326.158a3.192,3.192,0,0,1-2.427.219,1.62,1.62,0,0,1-1.072-1.387c.082-.007.165-.014.251-.014,1.237,0,2.473-.007,3.71,0a.678.678,0,0,0,.7-.376v-.441C3016.242-2254.867,3016.22-2254.939,3016.209-2255.007Zm-4.649.011a5.788,5.788,0,0,1,.333-.635,2.129,2.129,0,0,1,2.169-.735,1.623,1.623,0,0,1,1.108,1.369Z" transform="translate(-3010.526 2257.41)" fill="#fff"/>
      </g>
      <g id="Group_5221" data-name="Group 5221" transform="translate(2911.936 -2267.213)">
        <path id="Path_2628" data-name="Path 2628" d="M2968.174-2256.568a2.824,2.824,0,0,0-1.677-1.194,2.986,2.986,0,0,0-3,.849c-.021-.025-.029-.032-.029-.035,0-.226-.007-.452-.014-.681a.428.428,0,0,0-.412-.43.473.473,0,0,0-.57.527v8.334a.47.47,0,0,0,.5.527c.316,0,.488-.186.488-.527v-3.71a3.047,3.047,0,0,0,4.3.179A2.984,2.984,0,0,0,2968.174-2256.568Zm-2.527,3.6a1.932,1.932,0,0,1-1.864-2.007,1.916,1.916,0,0,1,1.95-1.843,1.913,1.913,0,0,1,1.893,1.957A1.929,1.929,0,0,1,2965.647-2252.966Z" transform="translate(-2962.474 2258.062)" fill="#fff"/>
      </g>
      <g id="Group_5222" data-name="Group 5222" transform="translate(2890.889 -2271.024)">
        <path id="Path_2629" data-name="Path 2629" d="M2894.1-2271.024a3.256,3.256,0,0,1,2.12.655,2.106,2.106,0,0,1,.232.22.509.509,0,0,1-.018.735.436.436,0,0,1-.682-.045,2.427,2.427,0,0,0-3.446.252,1.057,1.057,0,0,0,.269,1.659,5.3,5.3,0,0,0,1.2.58,8.934,8.934,0,0,1,2.152.951,3.019,3.019,0,0,1,1.329,1.767,2.509,2.509,0,0,1-1.447,2.883,3.514,3.514,0,0,1-1.743.271,4.8,4.8,0,0,1-2.309-.715,4.29,4.29,0,0,1-.732-.586.487.487,0,0,1,.214-.807.411.411,0,0,1,.459.106,3.747,3.747,0,0,0,2.96,1.015,1.763,1.763,0,0,0,1.546-.992,1.582,1.582,0,0,0-.415-1.807,3.707,3.707,0,0,0-1.63-.9c-.5-.159-1-.3-1.482-.486a2.522,2.522,0,0,1-1.309-1.012,2.353,2.353,0,0,1,.406-2.836A3.231,3.231,0,0,1,2894.1-2271.024Z" transform="translate(-2890.889 2271.024)" fill="#fff"/>
      </g>
      <g id="Group_5223" data-name="Group 5223" transform="translate(2898.166 -2271.02)">
        <path id="Path_2630" data-name="Path 2630" d="M2916.623-2266.5l.218-.12a3.515,3.515,0,0,1,2.724-.373,1.884,1.884,0,0,1,1.453,1.86c.015,1.182.007,2.364,0,3.547a.486.486,0,0,1-.719.462.458.458,0,0,1-.254-.46c0-1.075,0-2.151,0-3.226a1.229,1.229,0,0,0-1.309-1.322,2.547,2.547,0,0,0-1.96.8.512.512,0,0,0-.16.389c.007,1.108,0,2.217,0,3.326,0,.335-.17.528-.462.541a.456.456,0,0,1-.521-.493q0-1.7,0-3.406,0-2.755,0-5.51a.47.47,0,0,1,.574-.516c.261.033.409.228.409.55q0,1.7,0,3.406Z" transform="translate(-2915.638 2271.01)" fill="#fff"/>
      </g>
      <g id="Group_5224" data-name="Group 5224" transform="translate(2919.362 -2267.019)">
        <path id="Path_2631" data-name="Path 2631" d="M2992.83-2253.962a.541.541,0,0,0,.62-.642,3.31,3.31,0,0,0-.039-.376,2.807,2.807,0,0,0-.871-1.756,2.6,2.6,0,0,0-2.337-.606,2.808,2.808,0,0,0-2.291,1.864,3.474,3.474,0,0,0-.143,1.638,2.7,2.7,0,0,0,1.935,2.276,3.764,3.764,0,0,0,1.509.093,5.075,5.075,0,0,0,1.817-.584.431.431,0,0,0,.24-.5.5.5,0,0,0-.775-.333,3.546,3.546,0,0,1-2.219.434,1.71,1.71,0,0,1-1.495-1.506h.255C2990.3-2253.962,2991.564-2253.958,2992.83-2253.962Zm-2.491-2.4a1.619,1.619,0,0,1,2.032,1.244c.007.039.011.079.018.136h-3.6A1.892,1.892,0,0,1,2990.338-2256.363Z" transform="translate(-2987.731 2257.402)" fill="#fff"/>
      </g>
      <g id="Group_5225" data-name="Group 5225" transform="translate(2904.756 -2267.017)">
        <path id="Path_2632" data-name="Path 2632" d="M2941.069-2257.394a2.983,2.983,0,0,0-3.014,2.968,2.971,2.971,0,0,0,2.979,2.979,2.949,2.949,0,0,0,2.982-2.964A2.973,2.973,0,0,0,2941.069-2257.394Zm-.047,4.9a1.946,1.946,0,0,1-1.906-1.943,1.956,1.956,0,0,1,1.921-1.918,1.959,1.959,0,0,1,1.928,1.95A1.942,1.942,0,0,1,2941.022-2252.491Z" transform="translate(-2938.054 2257.395)" fill="#fff"/>
      </g>
    </g>
  </g>
</svg>
