<svg xmlns="http://www.w3.org/2000/svg" width="65" height="16" viewBox="0 0 65 16">
  <g id="channel-facebook" transform="translate(-17 -918)">
    <rect id="Rectangle_3111" data-name="Rectangle 3111" width="65" height="16" rx="3" transform="translate(17 918)" fill="#373737"/>
    <g id="Group_5212" data-name="Group 5212" transform="translate(-246.083 649.816)">
      <path id="Path_2625" data-name="Path 2625" d="M297.005,275.949a2.345,2.345,0,0,0-1.039.281v3.2a6.752,6.752,0,0,0,.748.028c1.017,0,1.157-.466,1.157-1.116v-1.53c0-.48-.159-.866-.866-.866Zm-6.755-.175c-.706,0-.867.387-.867.867v.27h1.733v-.27C291.116,276.161,290.955,275.774,290.25,275.774Zm-13.086,3.334a.506.506,0,0,0,.574.577,2.106,2.106,0,0,0,.985-.28v-.76H277.8c-.439,0-.632.082-.632.463Zm26.413-3.16c-.707,0-.952.386-.952.866v1.753c0,.482.245.868.952.868s.952-.387.952-.868v-1.753C304.528,276.334,304.281,275.949,303.577,275.949ZM273.7,281.074h-2.078v-5.03h-1.038v-1.733h1.039V273.27a1.961,1.961,0,0,1,2.252-2.255h1.387v1.734h-.867c-.649,0-.691.242-.691.694l0,.868h1.57l-.184,1.733H273.7v5.03Zm7.1.013h-1.732l-.075-.438a3.97,3.97,0,0,1-1.962.509,1.843,1.843,0,0,1-1.946-2.022c0-1.384.789-1.878,2.2-1.878h1.436v-.3c0-.707-.081-.914-1.168-.914h-1.777l.174-1.733h1.942c2.384,0,2.907.753,2.907,2.661v4.115Zm5.889-4.916a9.914,9.914,0,0,0-1.906-.225c-.931,0-1.213.205-1.213,1v1.5c0,.791.282,1,1.213,1a9.89,9.89,0,0,0,1.906-.227V280.9a9.186,9.186,0,0,1-2.079.267c-2.231,0-3.118-1.173-3.118-2.868v-1.214c0-1.7.887-2.872,3.118-2.872a9.148,9.148,0,0,1,2.079.268v1.69Zm6.5,2.128h-3.811v.14c0,.791.282,1,1.213,1a12.116,12.116,0,0,0,2.424-.227V280.9a10.927,10.927,0,0,1-2.6.267c-2.231,0-3.118-1.173-3.118-2.868V276.91c0-1.483.658-2.7,2.945-2.7s2.944,1.2,2.944,2.7Zm6.755.032c0,1.638-.468,2.833-3.3,2.833a15.686,15.686,0,0,1-2.756-.264v-9.364l2.077-.347v3.276a4.715,4.715,0,0,1,1.559-.252c2.078,0,2.424.931,2.424,2.428v1.689Zm6.659.036c0,1.413-.583,2.784-3.024,2.784s-3.037-1.371-3.037-2.784V277c0-1.414.594-2.785,3.037-2.785s3.024,1.371,3.024,2.785v1.364Zm6.655,0c0,1.413-.584,2.784-3.025,2.784s-3.037-1.371-3.037-2.784V277c0-1.414.594-2.785,3.037-2.785s3.025,1.371,3.025,2.785v1.364Zm6.829,2.707H317.84l-1.9-3.179v3.179h-2.078v-9.538l2.078-.347v6.14l1.9-3.018h2.252l-2.079,3.294Zm-9.861-5.125c-.706,0-.951.386-.951.866v1.753c0,.482.245.868.951.868s.954-.387.954-.868v-1.753c0-.48-.249-.866-.954-.866Zm11.047,3.939a.643.643,0,1,1-.638.642.632.632,0,0,1,.638-.642Zm0,.1a.544.544,0,0,0,0,1.086.544.544,0,0,0,0-1.086Zm-.12.915h-.114v-.716a1.312,1.312,0,0,1,.2-.017.381.381,0,0,1,.223.054.173.173,0,0,1,.065.148.178.178,0,0,1-.139.174v.005c.062.012.105.068.12.173a.6.6,0,0,0,.045.177h-.12a.54.54,0,0,1-.048-.183.134.134,0,0,0-.154-.125h-.079v.308Zm0-.4h.083c.094,0,.173-.034.173-.123,0-.063-.045-.125-.173-.125a.589.589,0,0,0-.083.005v.243Z" fill="#fff"/>
    </g>
  </g>
</svg>
