<svg xmlns="http://www.w3.org/2000/svg" width="70" height="16" viewBox="0 0 70 16">
  <g id="channel-polo" transform="translate(-17 -389)">
    <rect id="Rectangle_3111" data-name="Rectangle 3111" width="70" height="16" rx="3" transform="translate(17 389)" fill="#373737"/>
    <g id="Group_5214" data-name="Group 5214" transform="translate(58 312.117)">
      <g id="Group_11" data-name="Group 11" transform="translate(-35 81)">
        <g id="Group_8" data-name="Group 8" transform="translate(0 0)">
          <g id="Group_1" data-name="Group 1" transform="translate(32.644 0.159)">
            <path id="Path_1" data-name="Path 1" d="M1794.224-1478.05c-.344.87-.671,1.687-.991,2.508-.278.714-.547,1.431-.823,2.146-.16.417-.32.833-.493,1.244a.251.251,0,0,1-.188.108c-.263.012-.527.012-.789,0a.235.235,0,0,1-.169-.119c-.164-.39-.318-.784-.47-1.179-.176-.455-.347-.913-.52-1.369q-.3-.788-.6-1.576c-.179-.467-.361-.933-.54-1.4a1.567,1.567,0,0,0-.166-.359.789.789,0,0,0-.017.113q0,2.828.006,5.657c0,.215-.025.238-.247.239-.245,0-.49,0-.734,0-.141,0-.206-.052-.2-.192,0-.067,0-.135,0-.2v-6.925c0-.252,0-.252.256-.252.447,0,.894,0,1.341,0a.237.237,0,0,1,.25.188c.205.549.416,1.1.621,1.646s.393,1.08.594,1.618.406,1.044.6,1.569c.153.406.3.817.454,1.255.092-.236.177-.451.26-.666.175-.457.347-.916.522-1.373s.352-.924.532-1.385c.174-.445.356-.886.528-1.331s.346-.9.511-1.356a.212.212,0,0,1,.228-.164c.416,0,.833.006,1.249,0,.134,0,.164.051.163.174q0,3.6,0,7.2c0,.146-.038.21-.2.2-.237-.013-.477,0-.715,0s-.242-.015-.242-.238q0-1.626,0-3.251,0-1.194.006-2.388c0-.029-.006-.057-.016-.134" transform="translate(-1787.277 1479.612)" fill="#fff"/>
          </g>
          <g id="Group_2" data-name="Group 2" transform="translate(50.281 0.157)">
            <path id="Path_2" data-name="Path 2" d="M1926.227-1477.751v.209q0,2.617,0,5.234c0,.237-.014.252-.246.252-.257,0-.515,0-.772,0-.134,0-.191-.059-.19-.187,0-.067,0-.135,0-.2q0-3.472,0-6.943c0-.181.044-.252.235-.243.293.014.587,0,.881.008a.294.294,0,0,1,.2.085c.363.468.716.943,1.071,1.415l1.1,1.463q.549.732,1.1,1.464c.322.427.646.852,1,1.325v-.224q0-2.672,0-5.344c0-.144.039-.195.187-.19.31.009.621,0,.943,0v7.57c-.278,0-.552-.018-.823.005a.581.581,0,0,1-.583-.3c-.421-.6-.877-1.172-1.317-1.758q-1.014-1.347-2.025-2.7-.361-.48-.722-.96l-.037.011" transform="translate(-1925.015 1479.63)" fill="#fff"/>
          </g>
          <g id="Group_3" data-name="Group 3" transform="translate(23.189 0.008)">
            <path id="Path_3" data-name="Path 3" d="M1717.527-1480.792a7.5,7.5,0,0,1,.962.084,4.246,4.246,0,0,1,1.665.733,3.475,3.475,0,0,1,1.19,1.63,3.931,3.931,0,0,1,.186.866,4.808,4.808,0,0,1,.051.979,3.743,3.743,0,0,1-1.055,2.414,3.539,3.539,0,0,1-1.434.868,5.252,5.252,0,0,1-1.26.245,4.19,4.19,0,0,1-3.252-1.06,3.549,3.549,0,0,1-.866-1.314,3.589,3.589,0,0,1-.279-1.469,4.11,4.11,0,0,1,.631-2.3,3.652,3.652,0,0,1,1.5-1.277,4.327,4.327,0,0,1,1.965-.4m-2.808,3.972a4.706,4.706,0,0,0,.007.647,2.449,2.449,0,0,0,.175.646,2.671,2.671,0,0,0,2.213,1.619,2.969,2.969,0,0,0,1.51-.172,2.524,2.524,0,0,0,1.654-2.033,4.187,4.187,0,0,0-.048-1.672,2.6,2.6,0,0,0-.676-1.266,2.564,2.564,0,0,0-1.65-.757,3.246,3.246,0,0,0-1.71.25,2.292,2.292,0,0,0-1.232,1.213,3.336,3.336,0,0,0-.243,1.526" transform="translate(-1713.433 1480.793)" fill="#fff"/>
          </g>
          <g id="Group_4" data-name="Group 4" transform="translate(7.507)">
            <path id="Path_4" data-name="Path 4" d="M1594.922-1480.857a8.861,8.861,0,0,1,1.105.1,3.884,3.884,0,0,1,2.144,1.187,3.83,3.83,0,0,1,.788,1.479,4.14,4.14,0,0,1,.125,1.757,3.484,3.484,0,0,1-1.952,2.85,5.7,5.7,0,0,1-1.113.368,3.683,3.683,0,0,1-.912.126,9.511,9.511,0,0,1-1.043-.117,3.258,3.258,0,0,1-1.174-.411,3.588,3.588,0,0,1-1.7-2,4.149,4.149,0,0,1-.205-1.87,3.622,3.622,0,0,1,1.295-2.545,3.437,3.437,0,0,1,1.536-.756c.4-.076.814-.122,1.1-.164m2.95,3.966a3.458,3.458,0,0,0-.327-1.549,2.471,2.471,0,0,0-1.9-1.4,3.059,3.059,0,0,0-1.741.149,2.5,2.5,0,0,0-1.292,1.049,3.073,3.073,0,0,0-.339,1.079,4.178,4.178,0,0,0-.005,1.359,2.714,2.714,0,0,0,.557,1.282,2.682,2.682,0,0,0,1.838.96,3,3,0,0,0,1.383-.143,2.666,2.666,0,0,0,1.2-.814,3.083,3.083,0,0,0,.625-1.97" transform="translate(-1590.96 1480.857)" fill="#fff"/>
          </g>
          <g id="Group_5" data-name="Group 5" transform="translate(0 0.159)">
            <path id="Path_5" data-name="Path 5" d="M1533.551-1475.062v2.758c0,.26,0,.26-.267.26h-.679c-.263,0-.271-.008-.271-.266v-6.979c0-.326,0-.326.324-.326,1.3,0,2.608-.015,3.911.016a2.5,2.5,0,0,1,1.453.465,1.978,1.978,0,0,1,.827,1.546,2.191,2.191,0,0,1-.688,1.831,2.208,2.208,0,0,1-1.03.51,16.006,16.006,0,0,1-3.317.162c-.061,0-.123,0-.184,0a.557.557,0,0,0-.08.019m0-1.041a.91.91,0,0,0,.119.017c.839,0,1.676.015,2.514-.009a2.072,2.072,0,0,0,.767-.194,1.121,1.121,0,0,0,.666-1.15,1.2,1.2,0,0,0-1.169-1.177c-.91-.012-1.822-.014-2.733-.026-.132,0-.167.043-.166.169.005.526,0,1.052,0,1.578Z" transform="translate(-1532.333 1479.618)" fill="#fff"/>
          </g>
          <g id="Group_6" data-name="Group 6" transform="translate(16.972 0.157)">
            <path id="Path_6" data-name="Path 6" d="M1666.046-1473.051h.243c1.23,0,2.46,0,3.69,0,.183,0,.256.046.239.236-.016.17,0,.342,0,.513,0,.246,0,.247-.242.247h-4.663c-.428,0-.428,0-.428-.423q0-3.461,0-6.921c0-.174.041-.24.223-.229a7.48,7.48,0,0,0,.753,0c.154-.007.2.047.2.2q-.008,3.075,0,6.15Z" transform="translate(-1664.877 1479.632)" fill="#fff"/>
          </g>
          <g id="Group_7" data-name="Group 7" transform="translate(43.127 0.159)">
            <path id="Path_7" data-name="Path 7" d="M1871.436-1478.613a19.71,19.71,0,0,1-1.062,2.782.183.183,0,0,1-.12.1c-.349.007-.7,0-1.046,0-.016,0-.031-.015-.062-.031q.216-.508.431-1.012c.23-.537.464-1.073.695-1.611.163-.378.321-.758.493-1.131a.231.231,0,0,1,.175-.093c.343-.009.686-.01,1.028,0a.24.24,0,0,1,.171.115c.407.873.806,1.748,1.209,2.623.144.313.292.625.44.937.084.177.068.207-.135.208-.281,0-.563-.013-.844,0a.257.257,0,0,1-.285-.193c-.131-.312-.266-.622-.394-.936-.207-.509-.409-1.02-.612-1.531-.025-.061-.042-.124-.08-.238" transform="translate(-1869.145 1479.612)" fill="#fff"/>
          </g>
        </g>
        <g id="Group_9" data-name="Group 9" transform="translate(47.304 5.694)">
          <path id="Path_8" data-name="Path 8" d="M1901.765-1436.365c.075-.007.127-.017.179-.017.324,0,.648-.01.971.005a.31.31,0,0,1,.227.133c.273.565.532,1.136.793,1.707.061.134.021.188-.131.189-.336,0-.672,0-1.009,0a.225.225,0,0,1-.234-.162c-.26-.609-.522-1.217-.8-1.856" transform="translate(-1901.765 1436.386)" fill="#fff"/>
        </g>
        <g id="Group_10" data-name="Group 10" transform="translate(41.574 5.695)">
          <path id="Path_9" data-name="Path 9" d="M1859.071-1436.356c-.167.41-.322.789-.476,1.17q-.139.343-.276.688a.231.231,0,0,1-.255.157c-.287-.009-.575,0-.863,0-.189,0-.228-.049-.156-.217.163-.385.332-.766.5-1.15.073-.166.15-.329.216-.5a.228.228,0,0,1,.244-.172c.306.007.613,0,.919,0a1.07,1.07,0,0,1,.15.022" transform="translate(-1857.011 1436.382)" fill="#fff"/>
        </g>
      </g>
    </g>
  </g>
</svg>
