<svg xmlns="http://www.w3.org/2000/svg" width="61" height="16" viewBox="0 0 61 16">
  <g id="channel-lazada" transform="translate(-10964 -1263)">
    <rect id="Rectangle_3111" data-name="Rectangle 3111" width="61" height="16" rx="3" transform="translate(10964 1263)" fill="#373737"/>
    <g id="Group_5217" data-name="Group 5217" transform="translate(8357.593 3520.72)">
      <g id="g35" transform="translate(2615.407 -2254.396)">
        <path id="path33" d="M2615.407-2253.053h1.631v7.85h2.812v1.549h-4.437l-.007-9.4" transform="translate(-2615.407 2253.053)" fill="#fff"/>
      </g>
      <g id="g41" transform="translate(2620.291 -2252.042)">
        <path id="path39" d="M2635.424-2245.011a2.764,2.764,0,0,1,2.215,1.065v-.925h1.522v6.918h-1.522v-.925a2.765,2.765,0,0,1-2.215,1.065,3.448,3.448,0,0,1-3.338-3.6,3.444,3.444,0,0,1,3.338-3.6m.277,1.385a2.06,2.06,0,0,0-2.048,2.211,2.071,2.071,0,0,0,2.048,2.215,2.068,2.068,0,0,0,2.047-2.215,2.058,2.058,0,0,0-2.047-2.211" transform="translate(-2632.086 2245.011)" fill="#fff"/>
      </g>
      <g id="g47" transform="translate(2628.55 -2251.902)">
        <path id="path45" d="M2660.293-2238.816l3.628-4.334h-3.573v-1.383h5.539v1.219l-3.614,4.317h3.7v1.382h-5.676v-1.2" transform="translate(-2660.293 2244.533)" fill="#fff"/>
      </g>
      <g id="g53" transform="translate(2634.762 -2252.042)">
        <path id="path51" d="M2684.841-2245.011a2.764,2.764,0,0,1,2.215,1.065v-.925h1.522v6.918h-1.522v-.925a2.766,2.766,0,0,1-2.215,1.065,3.445,3.445,0,0,1-3.335-3.6,3.442,3.442,0,0,1,3.335-3.6m.276,1.385a2.06,2.06,0,0,0-2.048,2.211,2.071,2.071,0,0,0,2.048,2.215,2.069,2.069,0,0,0,2.048-2.215,2.058,2.058,0,0,0-2.048-2.211" transform="translate(-2681.506 2245.011)" fill="#fff"/>
      </g>
      <g id="g59" transform="translate(2642.844 -2254.953)">
        <path id="path57" d="M2712.445-2252.042a2.756,2.756,0,0,1,2.212,1.065v-3.976h1.522v9.969h-1.522v-.925a2.755,2.755,0,0,1-2.212,1.065,3.448,3.448,0,0,1-3.338-3.6,3.445,3.445,0,0,1,3.338-3.6m.276,1.386a2.06,2.06,0,0,0-2.048,2.211,2.073,2.073,0,0,0,2.048,2.215,2.071,2.071,0,0,0,2.048-2.215,2.058,2.058,0,0,0-2.048-2.211" transform="translate(-2709.107 2254.953)" fill="#fff"/>
      </g>
      <g id="g65" transform="translate(2650.919 -2252.042)">
        <path id="path63" d="M2740.03-2245.011a2.754,2.754,0,0,1,2.211,1.065v-.925h1.519v6.918h-1.526v-.925a2.754,2.754,0,0,1-2.211,1.065,3.448,3.448,0,0,1-3.338-3.6,3.45,3.45,0,0,1,3.345-3.6m.277,1.385a2.06,2.06,0,0,0-2.048,2.211,2.073,2.073,0,0,0,2.048,2.215,2.071,2.071,0,0,0,2.047-2.215,2.058,2.058,0,0,0-2.047-2.211" transform="translate(-2736.685 2245.011)" fill="#fff"/>
      </g>
    </g>
  </g>
</svg>
