<svg xmlns="http://www.w3.org/2000/svg" width="17.697" height="23.25" viewBox="0 0 17.697 23.25">
  <path id="checkout-1" d="M-644.562,388.761a8.224,8.224,0,0,0-8.223,8.188v.035a8.237,8.237,0,0,0,.463,2.729,10.723,10.723,0,0,0,.9,1.807c1.712,2.956,4.534,6.67,6.087,8.811a.908.908,0,0,0,1.543,0,101.194,101.194,0,0,0,6.087-8.811,10.737,10.737,0,0,0,.9-1.807,8.242,8.242,0,0,0,.462-2.729v-.035A8.224,8.224,0,0,0-644.562,388.761Zm0,12.32a4.1,4.1,0,0,1-4.094-4.1,4.093,4.093,0,0,1,4.094-4.094,4.1,4.1,0,0,1,4.1,4.094A4.1,4.1,0,0,1-644.562,401.081Z" transform="translate(653.41 -388.136)" fill="none" stroke="#373737" stroke-miterlimit="10" stroke-width="1.25"/>
</svg>
