<svg xmlns="http://www.w3.org/2000/svg" width="44.653" height="22.006" viewBox="0 0 44.653 22.006">
  <g id="commit-3" transform="translate(-1300.712 -9301.25)">
    <g id="Group_2924" data-name="Group 2924">
      <path id="Path_924" data-name="Path 924" d="M1345.095,9314.315a.923.923,0,0,1,.27.652v5.327h-.987a4.606,4.606,0,1,0-9.211,0h-.987v-12.864a.922.922,0,0,1,.922-.922h4.055a.923.923,0,0,1,.852.568l1.466,3.519a.908.908,0,0,0,.2.3Z" fill="#0f3057"/>
      <path id="Path_925" data-name="Path 925" d="M1332.625,9301.922v17.7a.672.672,0,0,1-.673.673h-9.887a.689.689,0,0,1-.668-.625,4.612,4.612,0,0,0-9.183.625h-1.278v-18.373a.672.672,0,0,1,.672-.672h20.344A.672.672,0,0,1,1332.625,9301.922Z" fill="#0f3057"/>
      <rect id="Rectangle_2767" data-name="Rectangle 2767" width="8.501" height="1.829" transform="translate(1300.712 9318.46)" fill="#0f3057"/>
      <rect id="Rectangle_2768" data-name="Rectangle 2768" width="5.919" height="1.829" transform="translate(1303.295 9314.963)" fill="#0f3057"/>
      <g id="Group_2922" data-name="Group 2922">
        <path id="Path_926" data-name="Path 926" d="M1319.8,9320.294a2.968,2.968,0,1,1-2.974-2.974A2.963,2.963,0,0,1,1319.8,9320.294Z" fill="#0f3057"/>
      </g>
      <g id="Group_2923" data-name="Group 2923">
        <path id="Path_927" data-name="Path 927" d="M1342.734,9320.294a2.962,2.962,0,1,1-2.962-2.974A2.96,2.96,0,0,1,1342.734,9320.294Z" fill="#0f3057"/>
      </g>
    </g>
  </g>
</svg>
