<svg xmlns="http://www.w3.org/2000/svg" width="21.723" height="25.673" viewBox="0 0 21.723 25.673">
  <path id="commit-2" d="M961.044,9303.219l-9.273-3.784a1.6,1.6,0,0,0-1.2,0l-9.273,3.784a1.6,1.6,0,0,0-.988,1.523q.285,13.419,9.953,19.969a1.617,1.617,0,0,0,1.816,0q9.666-6.552,9.953-19.969A1.6,1.6,0,0,0,961.044,9303.219Zm-3.806,4.8-5.713,8.657a.947.947,0,0,1-.7.425.626.626,0,0,1-.1.006.958.958,0,0,1-.678-.28L945.226,9312a.961.961,0,0,1,0-1.355.982.982,0,0,1,1.355,0l3.992,3.991,5.066-7.676a.958.958,0,0,1,1.6,1.055Z" transform="translate(-940.31 -9299.317)" fill="#0f3057"/>
</svg>
