<svg xmlns="http://www.w3.org/2000/svg" width="24.832" height="24.832" viewBox="0 0 24.832 24.832">
  <path id="commit-1" d="M562.949,9299.795a12.416,12.416,0,1,0,12.416,12.416A12.416,12.416,0,0,0,562.949,9299.795Zm3.029,18.192H556.8a.915.915,0,1,1,0-1.829h9.175a3.234,3.234,0,0,0,0-6.468h-6.972l1.231,1.23a.913.913,0,1,1-1.291,1.291l-2.729-2.729-.064-.061a.8.8,0,0,1-.108-.129.188.188,0,0,1-.021-.039.64.64,0,0,1-.065-.12.017.017,0,0,1,0-.013.786.786,0,0,1-.052-.173.777.777,0,0,1-.017-.172.765.765,0,0,1,.017-.172.8.8,0,0,1,.052-.173.016.016,0,0,1,0-.013.891.891,0,0,1,.078-.146l0-.01a1.069,1.069,0,0,1,.112-.133l.064-.064,2.729-2.729a.914.914,0,0,1,1.291,1.295l-1.227,1.228h6.968a5.063,5.063,0,1,1,0,10.126Z" transform="translate(-550.533 -9299.795)" fill="#0f3057"/>
</svg>
