<svg xmlns="http://www.w3.org/2000/svg" width="14.01" height="13.999" viewBox="0 0 14.01 13.999">
  <g id="Group_1380" data-name="Group 1380" transform="translate(-124.108 -342.969)">
    <path id="Path_524" data-name="Path 524" d="M156.625,379.962l2.021,2.021,2.761-4.184" transform="translate(-27.904 -29.922)" fill="none" stroke="#004377" stroke-linecap="round" stroke-linejoin="round" stroke-width="1"/>
    <path id="Path_525" data-name="Path 525" d="M130.3,343.833a1.289,1.289,0,0,1,1.615,0l1.019.87a1.479,1.479,0,0,0,.814.3h1.093a1.246,1.246,0,0,1,1.242,1.242v1.093a1.46,1.46,0,0,0,.3.807l.87,1.019a1.289,1.289,0,0,1,0,1.615l-.87,1.019a1.46,1.46,0,0,0-.3.807V353.7a1.246,1.246,0,0,1-1.242,1.242h-1.093a1.46,1.46,0,0,0-.807.3l-1.019.869a1.289,1.289,0,0,1-1.615,0l-1.019-.869a1.478,1.478,0,0,0-.807-.3h-1.118a1.246,1.246,0,0,1-1.242-1.242v-1.1a1.435,1.435,0,0,0-.292-.8l-.87-1.025a1.3,1.3,0,0,1,0-1.609l.87-1.025a1.451,1.451,0,0,0,.292-.8v-1.093A1.246,1.246,0,0,1,127.367,345h1.112a1.459,1.459,0,0,0,.807-.3Z" transform="translate(0)" fill="none" stroke="#004377" stroke-linecap="round" stroke-linejoin="round" stroke-width="1"/>
  </g>
</svg>
