<svg id="cuoi-deu" xmlns="http://www.w3.org/2000/svg" width="75.453" height="75.454" viewBox="0 0 75.453 75.454">
  <g id="Group_5164" data-name="Group 5164">
    <path id="Path_2619" data-name="Path 2619" d="M1012.519-513.94a37.77,37.77,0,0,1-37.727-37.727,37.769,37.769,0,0,1,37.727-37.727,37.769,37.769,0,0,1,37.727,37.727A37.77,37.77,0,0,1,1012.519-513.94Zm0-72.819a35.131,35.131,0,0,0-35.092,35.092,35.132,35.132,0,0,0,35.092,35.093,35.132,35.132,0,0,0,35.092-35.093A35.131,35.131,0,0,0,1012.519-586.759Z" transform="translate(-974.792 589.394)" fill="#ffbf43"/>
  </g>
  <g id="Group_5165" data-name="Group 5165" transform="translate(50.92 26.037)">
    <path id="Path_2620" data-name="Path 2620" d="M1056.93-544.179a3.216,3.216,0,0,1,3.216-3.216,3.216,3.216,0,0,1,3.216,3.216,3.216,3.216,0,0,1-3.216,3.216A3.216,3.216,0,0,1,1056.93-544.179Z" transform="translate(-1056.93 547.395)" fill="#ffbf43"/>
  </g>
  <g id="Group_5166" data-name="Group 5166" transform="translate(16.834 42.503)">
    <path id="Path_2621" data-name="Path 2621" d="M1022.839-503.8a21.713,21.713,0,0,1-20.833-15.33,1.318,1.318,0,0,1,.867-1.649,1.319,1.319,0,0,1,1.649.867,19.09,19.09,0,0,0,18.317,13.477,19.092,19.092,0,0,0,18.318-13.477,1.318,1.318,0,0,1,1.649-.867,1.317,1.317,0,0,1,.867,1.649A21.713,21.713,0,0,1,1022.839-503.8Z" transform="translate(-1001.946 520.834)" fill="#ffbf43"/>
  </g>
  <g id="Group_5167" data-name="Group 5167" transform="translate(14.655 41.609)">
    <path id="Path_2622" data-name="Path 2622" d="M999.751-517.853a1.319,1.319,0,0,1-1.19-.749,1.318,1.318,0,0,1,.62-1.758l3.733-1.787a1.317,1.317,0,0,1,1.757.62,1.318,1.318,0,0,1-.62,1.757l-3.733,1.787A1.308,1.308,0,0,1,999.751-517.853Z" transform="translate(-998.432 522.276)" fill="#ffbf43"/>
  </g>
  <g id="Group_5168" data-name="Group 5168" transform="translate(54.429 41.609)">
    <path id="Path_2623" data-name="Path 2623" d="M1067.64-517.853a1.306,1.306,0,0,1-.567-.13l-3.733-1.787a1.317,1.317,0,0,1-.62-1.757,1.318,1.318,0,0,1,1.757-.62l3.733,1.787a1.318,1.318,0,0,1,.62,1.758A1.319,1.319,0,0,1,1067.64-517.853Z" transform="translate(-1062.59 522.275)" fill="#ffbf43"/>
  </g>
  <g id="Group_5169" data-name="Group 5169" transform="translate(15.829 27.302)">
    <path id="Path_2624" data-name="Path 2624" d="M1001.875-539.995a1.54,1.54,0,0,1-.776-.209,1.548,1.548,0,0,1-.564-2.118,6.092,6.092,0,0,1,5.255-3.031,6.066,6.066,0,0,1,5.032,2.675,1.549,1.549,0,0,1-.417,2.152,1.549,1.549,0,0,1-2.151-.416,2.972,2.972,0,0,0-2.464-1.311,2.983,2.983,0,0,0-2.573,1.485A1.55,1.55,0,0,1,1001.875-539.995Z" transform="translate(-1000.326 545.353)" fill="#ffbf43"/>
  </g>
</svg>
