<svg xmlns="http://www.w3.org/2000/svg" width="46.418" height="46.832" viewBox="0 0 46.418 46.832">
  <g id="empty-cart" transform="translate(-164.715 -334.301)">
    <g id="Group_4440" data-name="Group 4440" transform="translate(165.715 335.715)">
      <g id="Group_4438" data-name="Group 4438" transform="translate(19.113 27.997)">
        <line id="Line_165" data-name="Line 165" x1="6.122" y1="6.122" transform="translate(0.069)" fill="none" stroke="#e5e5e5" stroke-linecap="round" stroke-linejoin="round" stroke-width="2"/>
        <line id="Line_166" data-name="Line 166" x1="6.122" y2="6.122" transform="translate(0 0.069)" fill="none" stroke="#e5e5e5" stroke-linecap="round" stroke-linejoin="round" stroke-width="2"/>
      </g>
      <g id="Group_4439" data-name="Group 4439" transform="translate(7.078)">
        <line id="Line_167" data-name="Line 167" x1="8.054" y2="8.054" fill="none" stroke="#e5e5e5" stroke-linecap="round" stroke-linejoin="round" stroke-width="2"/>
        <line id="Line_168" data-name="Line 168" x2="8.054" y2="8.054" transform="translate(22.209)" fill="none" stroke="#e5e5e5" stroke-linecap="round" stroke-linejoin="round" stroke-width="2"/>
      </g>
      <path id="Path_1215" data-name="Path 1215" d="M-574-1333.712c0-4.1,2.21-4.442,4.935-4.442h34.548c2.725,0,4.935.342,4.935,4.442h0c0,4.784-2.21,4.442-4.935,4.442h-34.548c-2.725,0-4.935.342-4.935-4.442Z" transform="translate(574 1346.695)" fill="none" stroke="#e5e5e5" stroke-width="2"/>
      <path id="Path_1216" data-name="Path 1216" d="M-572.5-1334l3.134,19.2c.7,4.3,2.419,7.451,8.768,7.451h13.392c6.909,0,7.92-3.023,8.724-7.207l3.738-19.444" transform="translate(575.831 1351.767)" fill="none" stroke="#e5e5e5" stroke-linecap="round" stroke-width="2"/>
    </g>
  </g>
</svg>
