<svg xmlns="http://www.w3.org/2000/svg" width="23.562" height="20.86" viewBox="0 0 23.562 20.86">
  <g id="endow-2" transform="translate(-69.418 -221.803)">
    <g id="Group_2002" data-name="Group 2002" transform="translate(74.724 225.118)">
      <path id="Path_647" data-name="Path 647" d="M91.079,245.167v7.076L84.6,248.705V241.5Z" transform="translate(-84.603 -238.058)" fill="none" stroke="#373737" stroke-linecap="round" stroke-linejoin="round" stroke-width="1"/>
      <path id="Path_648" data-name="Path 648" d="M104.478,245.167v7.076l6.475-3.538V241.5Z" transform="translate(-98.002 -238.058)" fill="none" stroke="#373737" stroke-linecap="round" stroke-linejoin="round" stroke-width="1"/>
      <path id="Path_649" data-name="Path 649" d="M84.6,234.382l6.475,3.671,6.475-3.671-6.475-3.438Z" transform="translate(-84.603 -230.944)" fill="none" stroke="#373737" stroke-linecap="round" stroke-linejoin="round" stroke-width="1"/>
    </g>
    <g id="Group_2005" data-name="Group 2005" transform="translate(69.949 222.303)">
      <g id="Group_2003" data-name="Group 2003" transform="translate(0 0)">
        <path id="Path_650" data-name="Path 650" d="M76.1,242.427a10.492,10.492,0,0,1,.32-19.24" transform="translate(-69.949 -222.899)" fill="none" stroke="#373737" stroke-linecap="round" stroke-linejoin="round" stroke-width="1"/>
        <path id="Path_651" data-name="Path 651" d="M82.367,222.429l2.779-.126L83.7,224.672" transform="translate(-78.321 -222.303)" fill="none" stroke="#373737" stroke-linecap="round" stroke-linejoin="round" stroke-width="1"/>
      </g>
      <g id="Group_2004" data-name="Group 2004" transform="translate(15.848 0.644)">
        <path id="Path_652" data-name="Path 652" d="M119.915,224.28a10.492,10.492,0,0,1-.769,19.023" transform="translate(-118.965 -224.28)" fill="none" stroke="#373737" stroke-linecap="round" stroke-linejoin="round" stroke-width="1"/>
        <path id="Path_653" data-name="Path 653" d="M121.37,278.229l-2.779.126,1.451-2.369" transform="translate(-118.591 -259.14)" fill="none" stroke="#373737" stroke-linecap="round" stroke-linejoin="round" stroke-width="1"/>
      </g>
    </g>
  </g>
</svg>
