<svg xmlns="http://www.w3.org/2000/svg" width="21" height="17" viewBox="0 0 21 17">
  <g id="endow-3" transform="translate(638.5 892.5)">
    <path id="Path_654" data-name="Path 654" d="M-620.5-883.5A2.5,2.5,0,0,1-618-886v-1c0-4-1-5-5-5h-10c-4,0-5,1-5,5v.5a2.5,2.5,0,0,1,2.5,2.5,2.5,2.5,0,0,1-2.5,2.5v.5c0,4,1,5,5,5h10c4,0,5-1,5-5A2.5,2.5,0,0,1-620.5-883.5Z" fill="none" stroke="#373737" stroke-linecap="round" stroke-linejoin="round" stroke-width="1"/>
    <g id="Group_2007" data-name="Group 2007">
      <path id="Path_655" data-name="Path 655" d="M-625-881.116H-625" fill="none" stroke="#373737" stroke-linecap="round" stroke-linejoin="round" stroke-width="1.5"/>
      <path id="Path_656" data-name="Path 656" d="M-631-886.116H-631" fill="none" stroke="#373737" stroke-linecap="round" stroke-linejoin="round" stroke-width="1.5"/>
      <path id="Path_657" data-name="Path 657" d="M-631.367-880.317l6.734-6.734" fill="none" stroke="#373737" stroke-linecap="round" stroke-linejoin="round" stroke-width="1"/>
    </g>
  </g>
</svg>
