<svg xmlns="http://www.w3.org/2000/svg" width="17.999" height="22.896" viewBox="0 0 17.999 22.896">
  <g id="fire" transform="translate(-346.948 -4866.787)">
    <path id="Path_833" data-name="Path 833" d="M359.531,4837.777a9.782,9.782,0,0,0-6.054,8.779,8.958,8.958,0,0,1-3.835-.909c-2.976,8.274.868,14.025,7.326,14.025,7.164,0,11.348-8.995,6.194-13.117A8.791,8.791,0,0,1,359.531,4837.777Z" transform="translate(-1.137 29.51)" fill="#ffbf43" stroke="#c33149" stroke-linecap="round" stroke-linejoin="round" stroke-width="1"/>
    <path id="Path_835" data-name="Path 835" d="M359.524,4851.336a5.1,5.1,0,0,0-3.158,4.58,4.651,4.651,0,0,1-2-.474c-1.552,4.316.453,7.316,3.821,7.316,3.737,0,5.92-4.691,3.232-6.842A4.585,4.585,0,0,1,359.524,4851.336Z" transform="translate(-2.323 26.425)" fill="#ffbf43" stroke="#c33149" stroke-linecap="round" stroke-linejoin="round" stroke-width="1"/>
  </g>
</svg>
