<svg xmlns="http://www.w3.org/2000/svg" width="19.638" height="21.551" viewBox="0 0 19.638 21.551">
  <g id="garbage-can" transform="translate(0.683 0.625)">
    <path id="Path_1004" data-name="Path 1004" d="M789.827,409.089c-3.38-.335-6.781-.508-10.171-.508a60,60,0,0,0-6.03.3l-2.071.2" transform="translate(-771.556 -405.049)" fill="none" stroke="#373737" stroke-linecap="round" stroke-linejoin="round" stroke-width="1.25"/>
    <path id="Path_1005" data-name="Path 1005" d="M804.026,391.051l.223-1.33c.162-.964.284-1.685,2-1.685h2.659c1.715,0,1.847.761,2,1.7l.223,1.32" transform="translate(-798.443 -388.036)" fill="none" stroke="#373737" stroke-linecap="round" stroke-linejoin="round" stroke-width="1.25"/>
    <path id="Path_1006" data-name="Path 1006" d="M798.155,430.189l-.66,10.222c-.112,1.594-.2,2.832-3.035,2.832h-6.517c-2.832,0-2.923-1.238-3.035-2.832l-.66-10.222" transform="translate(-782.067 -422.941)" fill="none" stroke="#373737" stroke-linecap="round" stroke-linejoin="round" stroke-width="1.25"/>
    <path id="Path_1007" data-name="Path 1007" d="M814.83,473.641h3.38" transform="translate(-807.39 -458.923)" fill="none" stroke="#373737" stroke-linecap="round" stroke-linejoin="round" stroke-width="1.25"/>
    <path id="Path_1008" data-name="Path 1008" d="M809.93,450.026h5.075" transform="translate(-803.332 -439.368)" fill="none" stroke="#373737" stroke-linecap="round" stroke-linejoin="round" stroke-width="1.25"/>
  </g>
</svg>
