<svg id="hc-37" xmlns="http://www.w3.org/2000/svg" width="11.985" height="14.789" viewBox="0 0 11.985 14.789">
  <g id="Group_794" data-name="Group 794">
    <path id="Path_223" data-name="Path 223" d="M130.482,1056.3a1.644,1.644,0,0,1-.509-.535,1.722,1.722,0,0,1,.1-.767,1.436,1.436,0,0,0-.01-1.208c-.243-.335-.729-.361-1.166-.386a1.694,1.694,0,0,1-.741-.141,1.666,1.666,0,0,1-.358-.661c-.165-.423-.335-.861-.733-.99a1.462,1.462,0,0,0-1.142.364,1.673,1.673,0,0,1-.709.332,1.725,1.725,0,0,1-.716-.337,1.44,1.44,0,0,0-1.136-.359c-.4.128-.568.566-.732.99a.883.883,0,0,1-1.107.8c-.429.024-.914.05-1.157.384a1.44,1.44,0,0,0-.01,1.211,1.711,1.711,0,0,1,.1.765,1.655,1.655,0,0,1-.51.536c-.354.288-.72.586-.72,1.012s.366.723.721,1.013a1.632,1.632,0,0,1,.509.534,1.718,1.718,0,0,1-.1.765,1.458,1.458,0,0,0,.01,1.21c.242.334.707.361,1.157.386a.885.885,0,0,1,1.109.805c.164.422.334.857.73.986a.652.652,0,0,0,.21.033,1.9,1.9,0,0,0,.931-.4,1.718,1.718,0,0,1,.711-.333,1.376,1.376,0,0,1,.6.265c.036.022.072.045.107.068a1.888,1.888,0,0,0,.93.395.647.647,0,0,0,.21-.033c.4-.128.566-.564.732-.989a1.655,1.655,0,0,1,.358-.66.435.435,0,0,1,.1-.051l.021-.008a.878.878,0,0,1,.129-.033l.025,0a3.156,3.156,0,0,1,.331-.037l.143-.008a1.044,1.044,0,0,0,1.165-1.6,1.7,1.7,0,0,1-.1-.765,1.651,1.651,0,0,1,.51-.536c.354-.289.721-.588.721-1.011S130.839,1056.592,130.482,1056.3Zm-.3,1.661a1.883,1.883,0,0,0-.659.754,1.939,1.939,0,0,0,.09,1.034c.081.31.172.661.064.809s-.478.174-.8.192l-.227.015c-.07,0-.137.012-.205.021l-.019,0c-.06.009-.118.019-.176.032l-.022.005a1.146,1.146,0,0,0-.166.056l-.035.014a.921.921,0,0,0-.151.085,1.9,1.9,0,0,0-.522.876c-.118.3-.251.648-.435.707a.2.2,0,0,1-.065.007l-.027,0a.339.339,0,0,1-.051-.008l-.033-.009c-.017,0-.036-.011-.055-.018l-.036-.015a.567.567,0,0,1-.058-.025l-.037-.018-.063-.033-.036-.018-.066-.039-.031-.017-.075-.047-.019-.01-.089-.057a3.985,3.985,0,0,0-.513-.294h0a1.11,1.11,0,0,0-.452-.111,1.936,1.936,0,0,0-.967.406c-.236.151-.579.362-.74.311-.185-.06-.318-.406-.437-.711a1.876,1.876,0,0,0-.521-.872,1.908,1.908,0,0,0-1-.231c-.325-.018-.691-.039-.8-.192s-.016-.5.065-.813a1.927,1.927,0,0,0,.09-1.03,1.9,1.9,0,0,0-.661-.756c-.257-.208-.548-.444-.548-.645s.291-.438.548-.647a1.881,1.881,0,0,0,.66-.755,1.933,1.933,0,0,0-.089-1.03c-.081-.311-.174-.665-.066-.814s.476-.173.8-.192a1.3,1.3,0,0,0,1.521-1.1c.118-.3.253-.65.436-.709.157-.053.5.159.74.311a1.352,1.352,0,0,0,1.932,0c.237-.152.582-.362.742-.311.183.06.317.406.435.711a1.881,1.881,0,0,0,.522.872,1.906,1.906,0,0,0,1,.232c.322.019.687.04.8.192s.016.5-.066.814a1.938,1.938,0,0,0-.089,1.031,1.88,1.88,0,0,0,.666.757c.255.208.543.444.543.644S130.443,1057.75,130.181,1057.963Z" transform="translate(-119.219 -1051.582)" fill="#373737"/>
  </g>
  <g id="Group_795" data-name="Group 795" transform="translate(2.763 2.504)">
    <path id="Path_224" data-name="Path 224" d="M131.011,1065.8a3.228,3.228,0,1,1,3.228-3.229A3.233,3.233,0,0,1,131.011,1065.8Zm0-5.946a2.717,2.717,0,1,0,2.717,2.717A2.721,2.721,0,0,0,131.011,1059.853Z" transform="translate(-127.782 -1059.342)" fill="#373737"/>
  </g>
  <g id="Group_796" data-name="Group 796" transform="translate(1.427 9.36)">
    <path id="Path_225" data-name="Path 225" d="M126.525,1086.019a.256.256,0,0,1-.188-.082l-.915-.992-1.431.574a.256.256,0,0,1-.339-.315l1.411-4.436a.256.256,0,1,1,.487.155l-1.247,3.919,1.091-.438a.256.256,0,0,1,.283.064l.737.8,1.106-3.479a.256.256,0,0,1,.487.155l-1.239,3.9a.255.255,0,0,1-.188.172A.243.243,0,0,1,126.525,1086.019Z" transform="translate(-123.64 -1080.59)" fill="#373737"/>
  </g>
  <g id="Group_797" data-name="Group 797" transform="translate(6.19 9.36)">
    <path id="Path_226" data-name="Path 226" d="M139.9,1086.019a.246.246,0,0,1-.056-.006.256.256,0,0,1-.188-.172l-1.239-3.9a.256.256,0,1,1,.487-.155l1.106,3.479.736-.8a.256.256,0,0,1,.283-.064l1.091.438-1.246-3.919a.255.255,0,1,1,.487-.155l1.411,4.436a.256.256,0,0,1-.339.315l-1.43-.574-.915.992A.255.255,0,0,1,139.9,1086.019Z" transform="translate(-138.402 -1080.59)" fill="#373737"/>
  </g>
</svg>
