<svg xmlns="http://www.w3.org/2000/svg" width="12.886" height="15.901" viewBox="0 0 12.886 15.901">
  <g id="hc" transform="translate(0 0)">
    <g id="Group_794" data-name="Group 794">
      <path id="Path_223" data-name="Path 223" d="M131.328,1056.656a1.767,1.767,0,0,1-.547-.575,1.851,1.851,0,0,1,.1-.825,1.544,1.544,0,0,0-.011-1.3c-.261-.36-.784-.388-1.253-.415a1.822,1.822,0,0,1-.8-.151,1.791,1.791,0,0,1-.385-.711c-.177-.455-.36-.926-.788-1.064a1.571,1.571,0,0,0-1.228.391,1.8,1.8,0,0,1-.762.357,1.855,1.855,0,0,1-.77-.362,1.548,1.548,0,0,0-1.221-.386c-.428.138-.61.608-.787,1.064a.949.949,0,0,1-1.191.863c-.461.025-.982.054-1.244.413a1.548,1.548,0,0,0-.01,1.3,1.84,1.84,0,0,1,.1.822,1.779,1.779,0,0,1-.548.577c-.381.31-.774.63-.774,1.088s.394.778.775,1.089a1.753,1.753,0,0,1,.547.574,1.847,1.847,0,0,1-.1.823,1.568,1.568,0,0,0,.01,1.3c.26.359.76.388,1.244.415a.951.951,0,0,1,1.192.866c.177.454.359.922.784,1.06a.7.7,0,0,0,.226.035,2.037,2.037,0,0,0,1-.425,1.847,1.847,0,0,1,.765-.358,1.481,1.481,0,0,1,.65.285c.039.024.077.049.115.073a2.03,2.03,0,0,0,1,.424.7.7,0,0,0,.226-.035c.426-.137.609-.606.787-1.064a1.78,1.78,0,0,1,.385-.71.471.471,0,0,1,.11-.055l.023-.008a.943.943,0,0,1,.138-.036l.026,0a3.406,3.406,0,0,1,.356-.04l.154-.009a1.123,1.123,0,0,0,1.252-1.716,1.825,1.825,0,0,1-.1-.823,1.774,1.774,0,0,1,.549-.576c.38-.311.775-.632.775-1.087S131.712,1056.969,131.328,1056.656Zm-.323,1.786a2.024,2.024,0,0,0-.708.811,2.085,2.085,0,0,0,.1,1.111c.087.333.185.71.069.87s-.514.187-.862.207l-.244.016c-.075.005-.147.013-.221.023l-.021,0c-.065.009-.127.021-.189.035l-.024.005a1.229,1.229,0,0,0-.179.06l-.037.015a.99.99,0,0,0-.162.091,2.042,2.042,0,0,0-.562.942c-.127.326-.27.7-.467.76a.213.213,0,0,1-.07.008l-.029,0a.362.362,0,0,1-.054-.009l-.035-.01c-.019-.005-.039-.011-.059-.019l-.039-.016a.621.621,0,0,1-.063-.027l-.04-.019-.068-.035-.039-.02-.071-.042-.033-.018-.08-.05-.02-.011-.1-.062a4.287,4.287,0,0,0-.552-.316h0a1.194,1.194,0,0,0-.486-.119,2.081,2.081,0,0,0-1.039.437c-.254.163-.622.389-.8.335-.2-.064-.342-.436-.469-.765a2.017,2.017,0,0,0-.56-.938,2.052,2.052,0,0,0-1.074-.249c-.349-.02-.743-.042-.863-.206s-.017-.539.07-.874a2.072,2.072,0,0,0,.1-1.107,2.038,2.038,0,0,0-.71-.813c-.276-.224-.589-.477-.589-.694s.313-.471.589-.7a2.023,2.023,0,0,0,.71-.812,2.078,2.078,0,0,0-.1-1.107c-.087-.334-.187-.715-.07-.875s.512-.186.863-.207a1.4,1.4,0,0,0,1.635-1.187c.127-.328.272-.7.469-.763.169-.057.541.171.8.334a1.453,1.453,0,0,0,2.077,0c.255-.164.626-.39.8-.335.2.064.341.437.468.765a2.023,2.023,0,0,0,.561.937,2.049,2.049,0,0,0,1.08.249c.346.02.739.043.858.206s.017.54-.071.875a2.084,2.084,0,0,0-.1,1.108,2.022,2.022,0,0,0,.716.814c.274.224.584.477.584.692S131.286,1058.213,131.005,1058.442Z" transform="translate(-119.219 -1051.582)" fill="#004377"/>
    </g>
    <g id="Group_795" data-name="Group 795" transform="translate(2.971 2.692)">
      <path id="Path_224" data-name="Path 224" d="M131.254,1066.284a3.471,3.471,0,1,1,3.47-3.472A3.476,3.476,0,0,1,131.254,1066.284Zm0-6.392a2.921,2.921,0,1,0,2.921,2.921A2.925,2.925,0,0,0,131.254,1059.891Z" transform="translate(-127.782 -1059.342)" fill="#004377"/>
    </g>
    <g id="Group_796" data-name="Group 796" transform="translate(1.534 10.063)">
      <path id="Path_225" data-name="Path 225" d="M126.742,1086.427a.276.276,0,0,1-.2-.089l-.984-1.067-1.538.617a.275.275,0,0,1-.365-.338l1.517-4.769a.275.275,0,0,1,.524.166l-1.34,4.214,1.173-.471a.275.275,0,0,1,.3.069l.792.859,1.189-3.741a.275.275,0,0,1,.524.167L127,1086.235a.274.274,0,0,1-.2.185A.259.259,0,0,1,126.742,1086.427Z" transform="translate(-123.64 -1080.59)" fill="#004377"/>
    </g>
    <g id="Group_797" data-name="Group 797" transform="translate(6.655 10.063)">
      <path id="Path_226" data-name="Path 226" d="M140.01,1086.427a.262.262,0,0,1-.06-.007.275.275,0,0,1-.2-.185l-1.332-4.191a.275.275,0,1,1,.524-.167l1.189,3.741.792-.859a.275.275,0,0,1,.3-.069l1.173.471-1.34-4.214a.275.275,0,1,1,.523-.166l1.517,4.769a.275.275,0,0,1-.365.338l-1.538-.617-.984,1.067A.275.275,0,0,1,140.01,1086.427Z" transform="translate(-138.402 -1080.59)" fill="#004377"/>
    </g>
  </g>
</svg>
