<svg xmlns="http://www.w3.org/2000/svg" width="26.434" height="30.798" viewBox="0 0 26.434 30.798">
  <g id="heraldic" transform="translate(-214.699 -191.045)">
    <g id="Path_216" data-name="Path 216" transform="translate(630.919 -103.285)" fill="#8e9095">
      <path d="M -403.0021057128906 324.127685546875 C -403.53955078125 324.127685546875 -404.0671997070312 323.9612121582031 -404.4878845214844 323.6589660644531 L -414.3078308105469 316.6005554199219 C -414.8875427246094 316.1837463378906 -415.219970703125 315.5564575195312 -415.219970703125 314.8794860839844 L -415.219970703125 297.5205993652344 C -415.219970703125 296.3126525878906 -414.1438598632812 295.3299255371094 -412.8211669921875 295.3299255371094 L -393.1829223632812 295.3299255371094 C -391.8610229492188 295.3299255371094 -390.7855834960938 296.3126525878906 -390.7855834960938 297.5205993652344 L -390.7855834960938 314.8794860839844 C -390.7855834960938 315.5564575195312 -391.1180114746094 316.1837158203125 -391.6976013183594 316.6004638671875 L -401.5160217285156 323.6587829589844 C -401.93701171875 323.9612121582031 -402.4646606445312 324.127685546875 -403.0021057128906 324.127685546875 Z" stroke="none"/>
      <path d="M -412.8211669921875 296.3299255371094 C -413.5939331054688 296.3299255371094 -414.219970703125 296.8631896972656 -414.219970703125 297.5205993652344 L -414.219970703125 314.8794860839844 C -414.219970703125 315.2299499511719 -414.0386962890625 315.5624084472656 -413.7241821289062 315.7885437011719 L -403.9044189453125 322.8468322753906 C -403.3832092285156 323.2212829589844 -402.6209411621094 323.2212829589844 -402.0997314453125 322.8468322753906 L -392.2813720703125 315.7885437011719 C -391.9668579101562 315.5624084472656 -391.7855834960938 315.2299499511719 -391.7855834960938 314.8794860839844 L -391.7855834960938 297.5205993652344 C -391.7855834960938 296.8631896972656 -392.41162109375 296.3299255371094 -393.1829223632812 296.3299255371094 L -412.8211669921875 296.3299255371094 M -412.8211669921875 294.3299255371094 L -393.1829223632812 294.3299255371094 C -391.3096313476562 294.3299255371094 -389.7855834960938 295.7612609863281 -389.7855834960938 297.5205993652344 L -389.7855834960938 314.8794860839844 C -389.7855834960938 315.8674926757812 -390.2821350097656 316.8143920898438 -391.1138305664062 317.4123840332031 L -400.9323120117188 324.4707641601562 C -401.522216796875 324.89453125 -402.257080078125 325.127685546875 -403.0021057128906 325.127685546875 C -403.7471618652344 325.127685546875 -404.4820251464844 324.8945007324219 -405.0713806152344 324.4710998535156 L -414.8915100097656 317.4125366210938 C -415.7234497070312 316.8143615722656 -416.219970703125 315.8674926757812 -416.219970703125 314.8794860839844 L -416.219970703125 297.5205993652344 C -416.219970703125 295.7612609863281 -414.6952819824219 294.3299255371094 -412.8211669921875 294.3299255371094 Z" stroke="none" fill="#f2f2f2"/>
    </g>
    <path id="Path_217" data-name="Path 217" d="M-487.894,299.6l1.89,3.83,4.227.614-3.058,2.981.722,4.21-3.78-1.987-3.78,1.987.722-4.21-3.058-2.981,4.227-.614Z" transform="translate(715.81 -100.802)" fill="#fff"/>
  </g>
</svg>
