<svg xmlns="http://www.w3.org/2000/svg" width="17.469" height="18.05" viewBox="0 0 17.469 18.05">
  <g id="icon-user-group" transform="translate(0.625 0.625)">
    <path id="Path_269" data-name="Path 269" d="M-311.539,9.522a1.542,1.542,0,0,0-.28,0,3.748,3.748,0,0,1-3.621-3.757A3.762,3.762,0,0,1-311.675,2a3.768,3.768,0,0,1,3.765,3.765A3.762,3.762,0,0,1-311.539,9.522Z" transform="translate(317.319 -2)" fill="none" stroke="#373737" stroke-linecap="round" stroke-linejoin="round" stroke-width="1.25"/>
    <path id="Path_270" data-name="Path 270" d="M-303.61,4a2.966,2.966,0,0,1,2.968,2.968A2.972,2.972,0,0,1-303.5,9.937a.958.958,0,0,0-.221,0" transform="translate(315.538 -2.304)" fill="none" stroke="#373737" stroke-linecap="round" stroke-linejoin="round" stroke-width="1.25"/>
    <path id="Path_271" data-name="Path 271" d="M-316.116,14.351c-2.052,1.374-2.052,3.613,0,4.978a8.283,8.283,0,0,0,8.489,0c2.052-1.374,2.052-3.613,0-4.978A8.321,8.321,0,0,0-316.116,14.351Z" transform="translate(317.655 -3.7)" fill="none" stroke="#373737" stroke-linecap="round" stroke-linejoin="round" stroke-width="1.25"/>
    <path id="Path_272" data-name="Path 272" d="M-301.66,19.088A4.1,4.1,0,0,0-300,18.351a2.148,2.148,0,0,0,0-3.621A4.218,4.218,0,0,0-301.635,14" transform="translate(315.225 -3.823)" fill="none" stroke="#373737" stroke-linecap="round" stroke-linejoin="round" stroke-width="1.25"/>
  </g>
</svg>
