<svg xmlns="http://www.w3.org/2000/svg" width="13.72" height="13.72" viewBox="0 0 13.72 13.72">
  <g id="icon-tel" transform="translate(-1.5 -129.5)">
    <path id="Path_2650" data-name="Path 2650" d="M14.5,138.5" transform="translate(-4.55 -3.094)" fill="none" stroke="#373737" stroke-linecap="round" stroke-linejoin="round" stroke-width="1"/>
    <path id="Path_2651" data-name="Path 2651" d="M14.7,140.386a1.619,1.619,0,0,1-.159.693,2.625,2.625,0,0,1-.432.649,2.867,2.867,0,0,1-1.043.75,3.194,3.194,0,0,1-1.24.242,5.3,5.3,0,0,1-2.073-.464A11.169,11.169,0,0,1,7.565,141a18.285,18.285,0,0,1-2.086-1.781,18.072,18.072,0,0,1-1.774-2.08,11.339,11.339,0,0,1-1.247-2.169A5.357,5.357,0,0,1,2,132.887a3.29,3.29,0,0,1,.229-1.227A2.927,2.927,0,0,1,2.96,130.6a1.863,1.863,0,0,1,1.323-.6,1.2,1.2,0,0,1,.515.114,1.037,1.037,0,0,1,.426.356L6.7,132.55a2.177,2.177,0,0,1,.254.445,1,1,0,0,1,.089.388.863.863,0,0,1-.134.452,2.163,2.163,0,0,1-.356.452l-.483.5a.34.34,0,0,0-.1.254.578.578,0,0,0,.019.146c.019.051.038.089.051.127a5.277,5.277,0,0,0,.591.814c.286.331.591.668.922,1s.674.649,1.011.935a4.884,4.884,0,0,0,.82.585c.032.013.07.032.114.051a.439.439,0,0,0,.159.025.35.35,0,0,0,.261-.108l.483-.477a1.951,1.951,0,0,1,.458-.356.847.847,0,0,1,.452-.134,1.015,1.015,0,0,1,.388.083,2.458,2.458,0,0,1,.445.248l2.105,1.495a.965.965,0,0,1,.35.407A1.3,1.3,0,0,1,14.7,140.386Z" fill="none" stroke="#373737" stroke-miterlimit="10" stroke-width="1"/>
    <path id="Path_2652" data-name="Path 2652" d="M17.226,135.726a2.5,2.5,0,0,0-.742-1.442A2.179,2.179,0,0,0,15,133.5" transform="translate(-4.732 -1.274)" fill="none" stroke="#373737" stroke-linecap="round" stroke-linejoin="round" stroke-width="1"/>
    <path id="Path_2653" data-name="Path 2653" d="M19.452,134.452A4.452,4.452,0,0,0,15,130" transform="translate(-4.732)" fill="none" stroke="#373737" stroke-linecap="round" stroke-linejoin="round" stroke-width="1"/>
  </g>
</svg>
