<svg xmlns="http://www.w3.org/2000/svg" width="22.752" height="23.079" viewBox="0 0 22.752 23.079">
  <g id="icon-insta" transform="translate(0)">
    <path id="Path_61" data-name="Path 61" d="M634.745-222.538h-9.2a6.835,6.835,0,0,0-6.778,6.875v9.328a6.835,6.835,0,0,0,6.778,6.875h9.2a6.835,6.835,0,0,0,6.778-6.875v-9.328a6.835,6.835,0,0,0-6.778-6.875Zm4.489,16.2a4.522,4.522,0,0,1-4.489,4.554h-9.2a4.522,4.522,0,0,1-4.489-4.554v-9.328a4.522,4.522,0,0,1,4.489-4.554h9.2a4.522,4.522,0,0,1,4.489,4.554Zm0,0" transform="translate(-618.771 222.538)" fill="#373737"/>
    <path id="Path_62" data-name="Path 62" d="M817.939-29.17a5.89,5.89,0,0,0-5.8,5.963,5.89,5.89,0,0,0,5.8,5.963,5.89,5.89,0,0,0,5.8-5.963,5.89,5.89,0,0,0-5.8-5.963Zm0,9.607a3.6,3.6,0,0,1-3.544-3.644,3.6,3.6,0,0,1,3.544-3.644,3.6,3.6,0,0,1,3.544,3.644,3.6,3.6,0,0,1-3.544,3.644Zm0,0" transform="translate(-806.563 34.746)" fill="#373737"/>
    <path id="Path_63" data-name="Path 63" d="M1180.165-75.829a1.432,1.432,0,0,1-1.432,1.432,1.432,1.432,0,0,1-1.432-1.432,1.432,1.432,0,0,1,1.432-1.432,1.432,1.432,0,0,1,1.432,1.432Zm0,0" transform="translate(-1161.475 81.445)" fill="#373737"/>
  </g>
</svg>
