<svg id="icon-visa" xmlns="http://www.w3.org/2000/svg" width="43.529" height="27.094" viewBox="0 0 43.529 27.094">
  <path id="rect3062" d="M17.981,14.58H61.51V41.674H17.981Z" transform="translate(-17.981 -14.58)" fill="#fff" fill-rule="evenodd"/>
  <path id="path3065" d="M120.569,132.887h40.319v5.7H120.569Z" transform="translate(-119.099 -131.192)" fill="#0061b2" fill-rule="evenodd"/>
  <path id="path3069" d="M120.569,1389.74h40.319v5.7H120.569Z" transform="translate(-119.099 -1370.034)" fill="#fdb827" fill-rule="evenodd"/>
  <path id="path3071" d="M474.313,631.781v0h-1.657v.281h0c1.293.041,1.68.65,1.823,1.358l.763,7.563h2.51l5.362-9.205H480.6l-3.223,5.533-.558-5.533Z" transform="translate(-466.141 -622.936)" fill="#0061b2" fill-rule="evenodd"/>
  <path id="rect3086" d="M1090.154,631.4h2.436l-2.987,9.214h-2.436Z" transform="translate(-1071.845 -622.562)" fill="#0061b2" fill-rule="evenodd"/>
  <path id="path3089" d="M1908.052,644.219l-4.711,9.031h2.643l.688-1.379h3.067l.105,1.379h2.436l-.689-9.031Zm1.28,2.318.292,3.818h-2.2Z" transform="translate(-1876.323 -635.196)" fill="#0061b2" fill-rule="evenodd"/>
  <path id="path3105" d="M1380.838,625.842c.365-1.461,1.565-2.459,3.608-2.459a5.687,5.687,0,0,1,3.332,1.195l-1.448,1.517a4.162,4.162,0,0,0-1.7-.827c-.833,0-1.21.3-1.287.8-.154,1,3.4,1.607,3.286,3.929a3.541,3.541,0,0,1-3.516,3.056,6.828,6.828,0,0,1-4.113-1.1l1.241-1.769a4.359,4.359,0,0,0,2.413.942c.789-.036,1.4-.339,1.356-.873C1383.917,629.042,1380.176,628.486,1380.838,625.842Z" transform="translate(-1359.496 -614.659)" fill="#0061b2"/>
  <path id="path3151" d="M2512.355,644.2a.52.52,0,0,0-.249.065.469.469,0,0,0-.189.188.508.508,0,0,0,0,.506.474.474,0,0,0,.188.188.508.508,0,0,0,.5,0,.471.471,0,0,0,.187-.188.51.51,0,0,0,0-.506.467.467,0,0,0-.189-.188A.517.517,0,0,0,2512.355,644.2Zm0,.084a.43.43,0,0,1,.207.054.39.39,0,0,1,.158.157.43.43,0,0,1,.057.212.423.423,0,0,1-.055.21.4.4,0,0,1-.157.157.422.422,0,0,1-.42,0,.4.4,0,0,1-.157-.157.423.423,0,0,1-.056-.21.43.43,0,0,1,.057-.212.39.39,0,0,1,.158-.157A.43.43,0,0,1,2512.355,644.282Z" transform="translate(-2476.111 -635.175)" fill="#0061b2"/>
  <path id="path3147" d="M2532.57,660.115v.6h.089v-.254h.052a.106.106,0,0,1,.071.021.478.478,0,0,1,.093.139l.049.094h.107l-.067-.117a.677.677,0,0,0-.081-.118.152.152,0,0,0-.046-.032.163.163,0,0,0,.114-.055.167.167,0,0,0,.043-.114.162.162,0,0,0-.026-.087.139.139,0,0,0-.068-.058.425.425,0,0,0-.14-.017Zm.089.081h.1a.259.259,0,0,1,.089.01.083.083,0,0,1,.037.032.091.091,0,0,1-.014.113.161.161,0,0,1-.1.025h-.107Z" transform="translate(-2496.535 -650.864)" fill="#0061b2"/>
  <path id="path3159" d="M2838.276,1692.39a.518.518,0,0,0-.249.065.469.469,0,0,0-.189.188.508.508,0,0,0,0,.506.477.477,0,0,0,.188.188.509.509,0,0,0,.5,0,.471.471,0,0,0,.187-.188.512.512,0,0,0,0-.506.468.468,0,0,0-.19-.188A.517.517,0,0,0,2838.276,1692.39Zm0,.084a.432.432,0,0,1,.207.055.39.39,0,0,1,.158.157.432.432,0,0,1,.057.212.426.426,0,0,1-.055.21.4.4,0,0,1-.157.157.424.424,0,0,1-.42,0,.4.4,0,0,1-.157-.157.424.424,0,0,1,0-.422.393.393,0,0,1,.158-.157A.434.434,0,0,1,2838.276,1692.474Z" transform="translate(-2797.361 -1668.347)" fill="#0061b2"/>
  <path id="path3161" d="M2858.49,1708.31v.6h.088v-.254h.052a.106.106,0,0,1,.07.02.481.481,0,0,1,.093.139l.048.094h.108l-.067-.117a.689.689,0,0,0-.081-.118.143.143,0,0,0-.047-.032.166.166,0,0,0,.156-.169.161.161,0,0,0-.026-.087.137.137,0,0,0-.068-.058.421.421,0,0,0-.14-.017Zm.088.081h.1a.262.262,0,0,1,.089.01.084.084,0,0,1,.038.031.092.092,0,0,1-.015.113.162.162,0,0,1-.1.025h-.107Z" transform="translate(-2817.785 -1684.038)" fill="#0061b2"/>
</svg>
