<svg xmlns="http://www.w3.org/2000/svg" width="16.481" height="13.499" viewBox="0 0 16.481 13.499">
  <g id="icon-favorite" transform="translate(-29.869 -1004.141)">
    <path id="Path_253" data-name="Path 253" d="M-447.179,399.385V406a1.346,1.346,0,0,1-1.347,1.347h-7.536l-2.78,2.78a.5.5,0,0,1-.849-.353v-2.427h-1.371A1.346,1.346,0,0,1-462.41,406v-6.615a1.346,1.346,0,0,1,1.347-1.345h12.536A1.346,1.346,0,0,1-447.179,399.385Z" transform="translate(492.904 606.726)" fill="none" stroke="#373737" stroke-miterlimit="10" stroke-width="1.25"/>
    <path id="Path_138" data-name="Path 138" d="M-1761.821,788.968c-.5.454-1.9,1.9-1.9,1.9s-1.406-1.448-1.9-1.9c-2.027-1.857.676-3.953,1.9-1.929C-1762.5,785.016-1759.793,787.111-1761.821,788.968Z" transform="translate(1801.833 220.959)" fill="#373737"/>
  </g>
</svg>
