<svg id="icon-zalo" xmlns="http://www.w3.org/2000/svg" width="23.744" height="22.614" viewBox="0 0 23.744 22.614">
  <path id="Path_64" data-name="Path 64" d="M3226.6,3320.453c-.093,0-.13.083-.181.134a11.467,11.467,0,0,1-3.493,2.4,12.915,12.915,0,0,1-9.723.373,1.54,1.54,0,0,0-.891-.042c-.436.109-.866.238-1.3.368a7.817,7.817,0,0,1-3.877.311c-.087-.039-.151-.082-.072-.163l0,0,.012-.011c.073-.047.145-.1.218-.14a5.135,5.135,0,0,0,1.736-1.632,1.8,1.8,0,0,0,.2-.437.9.9,0,0,0-.34-.947l-.081-.082-.026-.026-.054-.056-.028-.029-.052-.055-.025-.027-.055-.059-.045-.048-.01-.01-.011-.013-.05-.055-.015-.016-.053-.06-.022-.024-.049-.055-.014-.017-.012-.013-.034-.04-.043-.05-.03-.035-.042-.049-.027-.033-.018-.022-.02-.024-.026-.032-.032-.039-.023-.028-.032-.04-.041-.051-.022-.028-.021-.028-.041-.052-.024-.032-.036-.047-.029-.039-.03-.04-.037-.05-.023-.03-.012-.017-.062-.086-.016-.022-.025-.035-.017-.024-.038-.054-.013-.019-.015-.022-.047-.068-.011-.017-.039-.058-.007-.01-.02-.03-.024-.038-.014-.022-.012-.019h0l-.034-.053-.021-.033-.033-.052-.008-.014-.053-.086-.014-.022-.017-.029-.038-.064-.026-.045-.008-.013-.067-.118-.012-.022-.063-.116v0l-.062-.118-.014-.027c-.017-.033-.034-.066-.051-.1l-.012-.024,0-.01-.037-.076-.01-.021-.029-.059-.009-.018-.034-.073-.012-.025-.035-.077,0-.005-.034-.077-.01-.022c-.023-.053-.045-.106-.067-.159l-.007-.018-.032-.079,0-.011-.033-.083,0-.007-.008-.022-.032-.084-.012-.033-.026-.07-.015-.044-.015-.043-.021-.062,0-.005-.01-.028c-.006-.018-.012-.037-.018-.055l-.011-.035-.022-.068-.022-.071-.005-.018-.006-.021c-.008-.025-.015-.051-.023-.077l-.006-.02-.022-.075,0-.017q-.025-.087-.047-.176l0-.015-.018-.072c0-.015-.008-.031-.011-.047l-.013-.052-.009-.038-.016-.07v0c-.006-.027-.012-.055-.018-.083l-.005-.023q-.05-.237-.088-.479h0c-.005-.035-.011-.069-.016-.1,0-.018-.005-.035-.007-.052,0-.035-.01-.069-.014-.1s-.007-.051-.01-.077l-.006-.051c-.007-.06-.013-.121-.019-.181q-.005-.059-.01-.117c0-.021,0-.042-.005-.062a.012.012,0,0,0,0,0c0,.021,0,.044.005.065,0-.026,0-.051-.006-.076h0v-.006a.048.048,0,0,1,0-.006.059.059,0,0,1,0-.009c0-.042-.006-.084-.009-.127,0-.013,0-.026,0-.039-.005-.089-.009-.178-.011-.267q0-.014,0-.028a10.916,10.916,0,0,1,.132-1.979,9.984,9.984,0,0,1,2.508-5.126,11.146,11.146,0,0,1,2.752-2.213c.057-.036.15-.047.16-.14v0a.025.025,0,0,0,0-.007.068.068,0,0,0,0-.01c-.021-.04-.055-.026-.083-.026-1.747,0-3.493-.036-5.235.011a3.174,3.174,0,0,0-2.913,2.067l-.01.029a3.271,3.271,0,0,0-.186,1.1c.01,5.411,0,10.816,0,16.222a3.111,3.111,0,0,0,2.954,3.146c1.415.052,2.835,0,4.25,0q.155,0,.311.016h7.489c1.866,0,3.731.01,5.6,0h.026a3.135,3.135,0,0,0,3.089-2.777,0,0,0,0,0,0,0c0-.039.008-.077.011-.116s.005-.08.007-.12h0a.056.056,0,0,0,0-.009s0-.006,0-.009,0-.014,0-.021,0-.012,0-.019,0-.012,0-.018v0c0-.011,0-.021,0-.031s0-.005,0-.008v-3.053c0-.042.008-.084.007-.126A.2.2,0,0,0,3226.6,3320.453Z" transform="translate(-3202.88 -3304.269)" fill="#373737"/>
  <path id="Path_65" data-name="Path 65" d="M3516.679,4105.438v0Z" transform="translate(-3513.685 -4097.793)" fill="#373737"/>
  <path id="Path_66" data-name="Path 66" d="M3515.008,4115.055c0,.008,0,.017,0,.026s0,0,0-.006a.123.123,0,0,1,0-.013S3515.008,4115.057,3515.008,4115.055Z" transform="translate(-3512.028 -4107.321)" fill="#373737"/>
  <path id="Path_67" data-name="Path 67" d="M3510.786,4149.974c0,.008,0,.017,0,.025s0-.005,0-.009Z" transform="translate(-3507.846 -4141.907)" fill="#373737"/>
  <path id="Path_68" data-name="Path 68" d="M3509.369,4166.307s0,0,0,0a.01.01,0,0,1,0,0Z" transform="translate(-3506.446 -4158.084)" fill="#373737"/>
  <path id="Path_69" data-name="Path 69" d="M3508.537,4172.1c0,.012,0,.024,0,.036C3508.535,4172.127,3508.536,4172.115,3508.537,4172.1Z" transform="translate(-3505.618 -4163.825)" fill="#373737"/>
  <path id="Path_70" data-name="Path 70" d="M3507.047,4193.578s0,.009,0,.013a.018.018,0,0,0,0-.005A.074.074,0,0,0,3507.047,4193.578Z" transform="translate(-3504.144 -4185.095)" fill="#373737"/>
  <path id="Path_71" data-name="Path 71" d="M3504.508,4249.682c0,.005,0,.011,0,.016v-.008S3504.508,4249.685,3504.508,4249.682Z" transform="translate(-3501.63 -4240.663)" fill="#373737"/>
  <path id="Path_72" data-name="Path 72" d="M3506.243,4205.473c0,.006,0,.013,0,.02S3506.243,4205.479,3506.243,4205.473Z" transform="translate(-3503.348 -4196.876)" fill="#373737"/>
  <path id="Path_73" data-name="Path 73" d="M3505.637,4216.143c0,.008,0,.016,0,.024C3505.636,4216.159,3505.637,4216.151,3505.637,4216.143Z" transform="translate(-3502.748 -4207.444)" fill="#373737"/>
  <path id="Path_74" data-name="Path 74" d="M3504.486,4293.447v0Z" transform="translate(-3501.609 -4284.001)" fill="#373737"/>
  <path id="Path_75" data-name="Path 75" d="M3504.344,4261.127s0-.005,0-.008S3504.344,4261.125,3504.344,4261.127Z" transform="translate(-3501.468 -4251.991)" fill="#373737"/>
  <path id="Path_76" data-name="Path 76" d="M3517.423,4093.516l.011-.069Z" transform="translate(-3514.423 -4085.918)" fill="#373737"/>
  <path id="Path_77" data-name="Path 77" d="M3504.29,4272.882v0Z" transform="translate(-3501.415 -4263.642)" fill="#373737"/>
  <path id="Path_78" data-name="Path 78" d="M3506.307,4338.431c0,.009,0,.018,0,.027l0-.023Z" transform="translate(-3503.413 -4328.566)" fill="#373737"/>
  <path id="Path_79" data-name="Path 79" d="M3520.22,4454.222c0-.012,0-.024-.007-.036,0,.025.009.05.014.075l-.006-.037h0Z" transform="translate(-3517.186 -4443.217)" fill="#373737"/>
  <path id="Path_80" data-name="Path 80" d="M3521.83,4462.965Z" transform="translate(-3518.788 -4451.912)" fill="#373737"/>
  <path id="Path_81" data-name="Path 81" d="M3522.256,4465.164c0,.01,0,.02.006.03v0h0C3522.259,4465.182,3522.258,4465.173,3522.256,4465.164Z" transform="translate(-3519.209 -4454.09)" fill="#373737"/>
  <path id="Path_82" data-name="Path 82" d="M3524.979,4478.807v.006s0,0,0,0Z" transform="translate(-3521.906 -4467.603)" fill="#373737"/>
  <path id="Path_83" data-name="Path 83" d="M3957.97,5672.246a.007.007,0,0,0,0,0h0A.007.007,0,0,1,3957.97,5672.246Z" transform="translate(-3950.767 -5649.657)" fill="#373737"/>
  <path id="Path_84" data-name="Path 84" d="M3857.981,3986.6a.547.547,0,0,0-.394.664.554.554,0,0,0,.4.4,1.349,1.349,0,0,0,.384.042h1.269l.417,0h0c.05,0,.106-.021.153.012h0a.145.145,0,0,1,.029.04c-.047.062-.093.125-.14.181-.8,1.016-1.6,2.037-2.4,3.053a.774.774,0,0,0-.155.845.585.585,0,0,0,.329.31l.007,0a1.247,1.247,0,0,0,.388.074h.016l.055,0h.675c.6,0,1.2,0,1.8,0h.276l.276,0,.163,0a.581.581,0,0,0,.637-.689c-.042-.326-.264-.5-.674-.5h-.353c-.615,0-1.24,0-1.9,0,.055-.071.094-.125.128-.17.022-.028.043-.053.064-.078q1.018-1.283,2.037-2.581a3.679,3.679,0,0,0,.519-.8.557.557,0,0,0-.191-.7l-.015-.01a.757.757,0,0,0-.162-.08,1.4,1.4,0,0,0-.487-.057c-.923-.005-1.85-.005-2.772,0A1.579,1.579,0,0,0,3857.981,3986.6Z" transform="translate(-3851.233 -3980.043)" fill="#373737"/>
  <path id="Path_85" data-name="Path 85" d="M4344.677,4126.791a1.585,1.585,0,0,0,1.58-.264c.125-.1.161-.078.25.031a.628.628,0,0,0,.725.2.578.578,0,0,0,.17-.084l0,0a.611.611,0,0,0,.261-.5c0-1.037.01-2.074,0-3.109a.639.639,0,0,0-.8-.6.764.764,0,0,0-.448.328l-.023.03-.069-.058-.023-.019-.026-.02-.045-.034-.024-.017-.017-.012-.035-.024-.017-.011-.043-.027-.02-.012-.024-.014-.022-.012-.016-.009-.014-.007-.052-.026-.018-.008-.053-.024-.053-.022-.035-.013-.065-.022-.032-.01-.032-.009h0l-.031-.008h0l-.033-.008-.033-.007-.033-.006-.024,0h-.016l-.023,0-.027,0-.014,0h0l-.027,0-.033,0h-.1a1.817,1.817,0,0,0-.931.279,2.325,2.325,0,0,0-.379.272l0,0a2.178,2.178,0,0,0-.681,1.985A2.042,2.042,0,0,0,4344.677,4126.791Zm-.11-2.219c0-.021,0-.041,0-.062a1.481,1.481,0,0,1,.042-.228c0-.018.01-.035.015-.052s0-.013.006-.019a.053.053,0,0,0,0-.008c.009-.025.018-.049.027-.073a.838.838,0,0,1,.863-.553.784.784,0,0,1,.216.036h0a.79.79,0,0,1,.395.291,1.291,1.291,0,0,1,0,1.436.849.849,0,0,1-1.357,0,1.113,1.113,0,0,1-.194-.437c0-.01,0-.021-.006-.031s-.005-.035-.008-.053c0-.035-.008-.071-.009-.106S4344.564,4124.618,4344.567,4124.572Z" transform="translate(-4332.374 -4114.552)" fill="#373737"/>
  <path id="Path_86" data-name="Path 86" d="M4865.1,3944.657v.023h0a.175.175,0,0,1,0,.023v.015s0,.007,0,.011a.448.448,0,0,0,.009.063v0a.024.024,0,0,0,0,.008v0a.08.08,0,0,0,0,.015v0l0,.012a.013.013,0,0,0,0,.006s0,.007,0,.01a.167.167,0,0,1,0,.021,0,0,0,0,1,0,0,.005.005,0,0,1,0,0,.033.033,0,0,1,0,.009s0,0,0,0a.054.054,0,0,1,0,.016s0,0,0,0l0,.009,0,.008a.015.015,0,0,1,0,.006.013.013,0,0,1,0,.006l0,.005h0c0,.007.006.013.008.02h0c0,.008.007.016.01.023h0s0,0,0,0c.011.021.021.041.033.06,0,0,0,0,0,.005h0l.02.031s0,0,0,0a.417.417,0,0,0,.026.035,0,0,0,0,1,0,0h0l0,.005,0,0h0a.117.117,0,0,0,.011.012.016.016,0,0,0,.006.006l.027.029.016.013h0l.016.012h0l.014.011h0l.011.008.007.005h0l0,0,.009.007h0l.007.005,0,0h0l.006,0h0l.008,0,.007,0h0l.013.007,0,0h0l.011.005,0,0,0,0,.01,0,0,0,.01,0a.531.531,0,0,0,.059.019.663.663,0,0,0,.8-.41l0-.007a.689.689,0,0,0,.043-.247c0-.669,0-1.339,0-2.008v-.4c0-.808,0-1.622,0-2.431v-.005a.618.618,0,0,0-.658-.669h-.038l-.061.006h-.01c-.022,0-.045.008-.068.014l-.013,0h0l-.014,0h0l-.014,0-.006,0h0l0,0h0l-.011,0a.562.562,0,0,0-.107.052h0l-.015.009h0l0,0h0l-.03.021h0a.543.543,0,0,0-.1.1l-.013.017,0,.007-.017.025a.288.288,0,0,0-.016.026l-.007.014c0,.009-.01.019-.014.028h0a.164.164,0,0,0-.013.029.044.044,0,0,0-.006.015h0a.049.049,0,0,0-.006.015l-.006.015a.107.107,0,0,1,0,.016.107.107,0,0,1,0,.016.027.027,0,0,1,0,.012l0,.015a.033.033,0,0,0,0,.01.02.02,0,0,0,0,.01.013.013,0,0,1,0,.006l0,.012c0,.005,0,.011,0,.016a.152.152,0,0,0,0,.021c0,.007,0,.013,0,.02s0,.01,0,.016a.069.069,0,0,1,0,.014.106.106,0,0,0,0,.018v.01a.04.04,0,0,1,0,.011v.019c-.006.243,0,.482,0,.725Z" transform="translate(-4849.244 -3933.092)" fill="#373737"/>
  <path id="Path_87" data-name="Path 87" d="M5049.372,4127.235c0,.006,0,.012,0,.017s0,.028,0,.042,0,.016,0,.024,0,.018,0,.027,0,.016,0,.023,0,.018,0,.026,0,.02,0,.029,0,.021,0,.031,0,.02,0,.03,0,.021,0,.03,0,.017,0,.025,0,.015,0,.021,0,.014,0,.021,0,.016,0,.024,0,.012,0,.018,0,.011,0,.016c.009.047.02.094.033.141l.007.027.008.027c0,.011.007.023.011.035l.017.05c.006.016.011.033.018.049s.013.033.019.048l.021.048.012.027.007.015.024.052.011.021s0,0,0,0l.023.044.011.021.026.047.014.021c.013.022.026.043.041.065l.044.063.036.048.036.046h0c.012.015.023.029.036.043a2.142,2.142,0,0,0,1.575.739h.163c.056,0,.113-.005.17-.011a2.16,2.16,0,0,0,2-2.364,2.138,2.138,0,0,0-2.214-2.142h-.118a2.052,2.052,0,0,0-1.764,1.043l-.013.023-.025.046-.013.024-.023.047c-.012.024-.022.048-.033.073a.218.218,0,0,1-.011.024l-.007.019,0,.011-.008.02c0,.008-.007.016-.01.025l-.01.025-.018.05h0l-.008.026c-.018.051-.033.1-.047.158,0,.018-.008.036-.013.054-.01.044-.019.089-.027.134,0,.007,0,.014,0,.021s0,.008,0,.013,0,.015,0,.022l0,.008c0,.008,0,.016,0,.024s0,.012,0,.019a.168.168,0,0,1,0,.017.223.223,0,0,1,0,.025c0,.028-.006.055-.008.083s0,.039,0,.058,0,.02,0,.029,0,.04,0,.06c0,.059,0,.12,0,.18C5049.371,4127.192,5049.371,4127.214,5049.372,4127.235Zm2.254-1.23a.794.794,0,0,1,.617.327.962.962,0,0,1,.076.117l.014.028.021.044c.006.015.013.029.019.045h0a1.294,1.294,0,0,1,.086.372.1.1,0,0,0,0,.017c0,.007,0,.013,0,.019s0,.026,0,.039v.019c0,.016,0,.032,0,.048a1.21,1.21,0,0,1-.226.7,1.03,1.03,0,0,1-.15.145.859.859,0,0,1-.229.127l-.011,0a.861.861,0,0,1-.5.017l-.015,0h0l-.015,0a.85.85,0,0,1-.416-.293c-.01-.013-.019-.026-.027-.04l-.013-.02-.011-.018-.011-.018a1.2,1.2,0,0,1-.161-.631c0-.03,0-.059,0-.086,0-.009,0-.017,0-.025s0-.033,0-.049,0-.031.005-.046a.9.9,0,0,1,.745-.826l.02,0,.021,0A.945.945,0,0,1,5051.626,4126Z" transform="translate(-5031.756 -4116.979)" fill="#373737"/>
</svg>
