<svg xmlns="http://www.w3.org/2000/svg" width="17.377" height="14.152" viewBox="0 0 17.377 14.152">
  <g id="icon-voucher" transform="translate(254.625 -707.375)">
    <path id="Path_257" data-name="Path 257" d="M-239.889,714.854a2.016,2.016,0,0,1,2.016-2.016v-.806c0-3.225-.806-4.032-4.032-4.032h-8.063c-3.225,0-4.032.806-4.032,4.032v.4a2.016,2.016,0,0,1,2.016,2.016A2.016,2.016,0,0,1-254,716.467v.4c0,3.225.806,4.032,4.032,4.032h8.063c3.225,0,4.032-.806,4.032-4.032A2.016,2.016,0,0,1-239.889,714.854Z" fill="none" stroke="#373737" stroke-linecap="round" stroke-linejoin="round" stroke-width="1.25"/>
    <g id="Group_875" data-name="Group 875" transform="translate(-248.652 711.991)">
      <path id="Path_258" data-name="Path 258" d="M-241,718.884h0" transform="translate(246.135 -714.098)" fill="none" stroke="#373737" stroke-linecap="round" stroke-linejoin="round" stroke-width="1.25"/>
      <path id="Path_259" data-name="Path 259" d="M-247,713.884h0" transform="translate(247.297 -713.13)" fill="none" stroke="#373737" stroke-linecap="round" stroke-linejoin="round" stroke-width="1.25"/>
      <path id="Path_260" data-name="Path 260" d="M-247.367,718.379l5.43-5.43" transform="translate(247.367 -712.949)" fill="none" stroke="#373737" stroke-linecap="round" stroke-linejoin="round" stroke-width="1.25"/>
    </g>
  </g>
</svg>
