<svg xmlns="http://www.w3.org/2000/svg" width="20.726" height="23.776" viewBox="0 0 20.726 23.776">
  <path id="icon-tiktok" d="M-3834.287-396.145h0a5.7,5.7,0,0,1-2.6-3.844c-.027-.155-.048-.311-.062-.467v-.523h-4.1v16.254a3.442,3.442,0,0,1-3.442,3.429,3.429,3.429,0,0,1-1.549-.367h0a3.46,3.46,0,0,1-.9-.652,3.46,3.46,0,0,1-.525-.682l-.031-.054c-.021-.036-.04-.072-.059-.109l-.028-.055-.018-.037a3.407,3.407,0,0,1-.183-.466c-.008-.027-.016-.054-.024-.081l-.022-.082c-.007-.027-.014-.055-.02-.082-.014-.062-.027-.125-.038-.188q-.021-.119-.032-.24c-.007-.065-.011-.13-.014-.2,0-.049,0-.1,0-.149a3.557,3.557,0,0,1,.019-.363c0-.04.009-.079.015-.118,0-.014,0-.029.006-.043q.01-.064.022-.127c0-.012,0-.025.007-.037.007-.037.016-.073.024-.11s.012-.048.018-.072l.02-.072q.035-.122.078-.241a3.4,3.4,0,0,1,.168-.383l.039-.074c.014-.024.027-.049.041-.073q.062-.108.132-.211l.047-.068c.024-.034.049-.067.074-.1l.051-.065h0l.053-.064q.093-.11.2-.213a3.431,3.431,0,0,1,2.434-1.008h.1q.083,0,.166.009h0l.063.005h0l.062.006h0l.033,0h.012l.048.007.1.016.032.006.032.006q.131.025.259.06l.032.009.095.029v-3.238h0v-.922a7.613,7.613,0,0,0-1.033-.07,7.524,7.524,0,0,0-7.526,7.522,7.513,7.513,0,0,0,3.336,6.249h0a7.493,7.493,0,0,0,4.189,1.272q.243,0,.483-.015l.09-.006.179-.016.089-.009.118-.014.094-.013.175-.027.058-.01.093-.017.092-.018.161-.034.159-.037.09-.023q.113-.029.224-.061l.155-.047.154-.05.087-.03.086-.031.086-.032.128-.05a7.518,7.518,0,0,0,1.811-1.04l.148-.118c.1-.08.193-.162.287-.247.046-.042.093-.085.138-.128s.091-.087.135-.132a7.5,7.5,0,0,0,2.2-5.319v-8.3a9.73,9.73,0,0,0,5.674,1.815v-4.069A5.674,5.674,0,0,1-3834.287-396.145Zm-6.3,14.524c.024-.031.048-.062.071-.093C-3840.54-381.684-3840.563-381.653-3840.587-381.622Zm8.064-13.22.149.068C-3832.424-394.8-3832.474-394.818-3832.523-394.842Zm.267.118.108.044Zm.552.2.155.044Z" transform="translate(3852 400.98)" fill="#373737" fill-rule="evenodd"/>
</svg>
