<svg xmlns="http://www.w3.org/2000/svg" width="11.466" height="15" viewBox="0 0 11.466 15">
  <path id="icon-location-2" d="M-647.552,388.761a5.234,5.234,0,0,0-5.233,5.211v.022a5.244,5.244,0,0,0,.294,1.737,6.829,6.829,0,0,0,.574,1.15c1.089,1.881,2.885,4.245,3.874,5.607a.578.578,0,0,0,.982,0,64.4,64.4,0,0,0,3.874-5.607,6.834,6.834,0,0,0,.574-1.15,5.245,5.245,0,0,0,.294-1.737v-.022A5.234,5.234,0,0,0-647.552,388.761Zm0,7.84a2.606,2.606,0,0,1-2.605-2.607,2.6,2.6,0,0,1,2.605-2.605,2.606,2.606,0,0,1,2.607,2.605A2.607,2.607,0,0,1-647.552,396.6Z" transform="translate(653.285 -388.261)" fill="none" stroke="#373737" stroke-miterlimit="10" stroke-width="1"/>
</svg>
