<svg xmlns="http://www.w3.org/2000/svg" width="20.645" height="24.777" viewBox="0 0 20.645 24.777">
  <g id="icon-youtube" transform="translate(0)">
    <path id="Path_60" data-name="Path 60" d="M-542,49.4h-1.356l.006-.793a.644.644,0,0,1,.635-.641h.085a.652.652,0,0,1,.654.641Zm-5.1-1.694a.581.581,0,0,0-.623.52v3.835a.585.585,0,0,0,.623.52.59.59,0,0,0,.629-.52V48.229a.586.586,0,0,0-.629-.52Zm8.281-2.148v7.3a3.3,3.3,0,0,1-3.376,3.194h-13.888a3.3,3.3,0,0,1-3.381-3.194v-7.3a3.291,3.291,0,0,1,3.381-3.182h13.888a3.286,3.286,0,0,1,3.376,3.182Zm-16.339,8.1V45.967h1.724V44.825l-4.591-.006v1.125h1.434v7.719h1.433Zm5.16-6.545h-1.434v4.1a8.043,8.043,0,0,1,0,1c-.121.315-.641.654-.847.036a7.767,7.767,0,0,1-.006-1V47.116h-1.434l.006,4.077c0,.617-.012,1.089.006,1.294.03.375.019.81.364,1.064a1.743,1.743,0,0,0,2.2-.738v.847h1.149Zm4.591,4.706v-3.43c0-1.295-.974-2.081-2.3-1.028l.006-2.541h-1.44v8.79l1.174-.024.115-.544c1.5,1.378,2.445.435,2.445-1.223Zm4.5-.459-1.077.012v.75a.592.592,0,0,1-.592.581h-.205a.586.586,0,0,1-.586-.581v-1.6h2.462V49.6a16.427,16.427,0,0,0-.072-1.736c-.182-1.228-1.9-1.415-2.771-.793a1.561,1.561,0,0,0-.605.81,4.617,4.617,0,0,0-.182,1.452v2.039c.005,3.387,4.112,2.9,3.629-.012Zm-5.523-11.07a1.031,1.031,0,0,0,.345.436,1.026,1.026,0,0,0,.593.169.9.9,0,0,0,.55-.182,1.387,1.387,0,0,0,.406-.514l-.036.569h1.6V33.96h-1.258v5.3a.523.523,0,0,1-.533.52.53.53,0,0,1-.527-.52v-5.3h-1.307v4.591c0,.581.012.974.024,1.174a2.393,2.393,0,0,0,.14.568Zm-4.845-3.846a5.638,5.638,0,0,1,.163-1.53,1.684,1.684,0,0,1,.586-.883,1.693,1.693,0,0,1,1.083-.332,2.121,2.121,0,0,1,.956.212,1.643,1.643,0,0,1,.605.562,1.912,1.912,0,0,1,.3.708,5.557,5.557,0,0,1,.078,1.107v1.73a8.037,8.037,0,0,1-.078,1.392,2.041,2.041,0,0,1-.309.823,1.451,1.451,0,0,1-.617.562,1.809,1.809,0,0,1-.871.188,2.446,2.446,0,0,1-.92-.157,1.255,1.255,0,0,1-.593-.472,2.022,2.022,0,0,1-.3-.756,7.4,7.4,0,0,1-.091-1.349V36.446Zm1.252,2.7a.67.67,0,0,0,.635.7.665.665,0,0,0,.635-.7V35.526a.673.673,0,0,0-.635-.7.669.669,0,0,0-.635.7Zm-4.434,1.833h1.512l.006-5.221,1.779-4.47H-552.8l-.95,3.315-.962-3.326h-1.633l1.893,4.483v5.22Zm0,0" transform="translate(559.459 -31.28)" fill="#373737"/>
  </g>
</svg>
