<svg id="logo-37" xmlns="http://www.w3.org/2000/svg" width="136.055" height="18.768" viewBox="0 0 136.055 18.768">
  <g id="Group_8" data-name="Group 8" transform="translate(0 0)">
    <g id="Group_1" data-name="Group 1" transform="translate(77.92 0.381)">
      <path id="Path_1" data-name="Path 1" d="M1803.859-1475.884c-.822,2.076-1.6,4.027-2.366,5.986-.664,1.7-1.305,3.417-1.965,5.123-.382.994-.764,1.988-1.177,2.969a.6.6,0,0,1-.449.258c-.627.029-1.258.027-1.883,0a.558.558,0,0,1-.4-.283c-.393-.931-.759-1.872-1.121-2.815-.421-1.087-.827-2.179-1.242-3.269q-.717-1.881-1.437-3.763c-.427-1.115-.861-2.227-1.289-3.343a3.742,3.742,0,0,0-.4-.855,1.893,1.893,0,0,0-.041.27q0,6.751.015,13.5c0,.513-.06.568-.589.569-.584,0-1.17-.011-1.752,0-.336.009-.493-.125-.485-.459,0-.161,0-.322,0-.482V-1479c0-.6,0-.6.61-.6,1.067,0,2.133.01,3.2-.006a.566.566,0,0,1,.6.45c.49,1.311.993,2.618,1.481,3.929.48,1.285.937,2.577,1.419,3.862.47,1.251.969,2.493,1.439,3.744.366.97.707,1.95,1.083,3,.22-.564.423-1.075.62-1.59.417-1.091.829-2.186,1.246-3.277s.841-2.207,1.27-3.306c.415-1.062.85-2.115,1.261-3.177s.826-2.152,1.22-3.236a.506.506,0,0,1,.544-.392c.993.01,1.987.015,2.98,0,.32-.006.391.121.389.415q-.011,8.593,0,17.188c0,.35-.09.5-.472.481-.567-.031-1.139-.006-1.708-.008-.54,0-.578-.036-.578-.568q0-3.881,0-7.76,0-2.85.015-5.7c0-.068-.015-.136-.037-.32" transform="translate(-1787.277 1479.612)" fill="#373737"/>
    </g>
    <g id="Group_2" data-name="Group 2" transform="translate(120.017 0.375)">
      <path id="Path_2" data-name="Path 2" d="M1927.908-1475.145v.5q0,6.247,0,12.494c0,.567-.032.6-.587.6-.614,0-1.229-.007-1.842,0-.32.006-.456-.142-.453-.447,0-.161,0-.322,0-.482q0-8.287-.01-16.573c0-.432.1-.6.561-.581.7.034,1.4,0,2.1.019a.7.7,0,0,1,.481.2c.866,1.116,1.709,2.25,2.557,3.378l2.623,3.492q1.31,1.747,2.625,3.494c.767,1.019,1.542,2.034,2.4,3.163v-.536q0-6.377-.006-12.757c0-.342.093-.464.446-.454.74.022,1.482.006,2.25.006v18.07c-.664,0-1.318-.043-1.965.013a1.387,1.387,0,0,1-1.391-.714c-1-1.429-2.093-2.8-3.143-4.2q-2.421-3.215-4.834-6.434-.863-1.146-1.723-2.292l-.089.027" transform="translate(-1925.015 1479.63)" fill="#373737"/>
    </g>
    <g id="Group_3" data-name="Group 3" transform="translate(55.35 0.02)">
      <path id="Path_3" data-name="Path 3" d="M1723.2-1480.789a17.889,17.889,0,0,1,2.3.2,10.127,10.127,0,0,1,3.974,1.751,8.3,8.3,0,0,1,2.84,3.891,9.4,9.4,0,0,1,.444,2.068,11.481,11.481,0,0,1,.122,2.337,8.933,8.933,0,0,1-2.519,5.761,8.44,8.44,0,0,1-3.424,2.073,12.522,12.522,0,0,1-3.008.584,10,10,0,0,1-7.763-2.53,8.466,8.466,0,0,1-2.067-3.136,8.559,8.559,0,0,1-.665-3.5,9.812,9.812,0,0,1,1.506-5.49,8.722,8.722,0,0,1,3.573-3.049,10.33,10.33,0,0,1,4.691-.956m-6.7,9.481a11.316,11.316,0,0,0,.016,1.544,5.863,5.863,0,0,0,.418,1.542,6.374,6.374,0,0,0,5.282,3.863,7.085,7.085,0,0,0,3.6-.41,6.024,6.024,0,0,0,3.949-4.852,9.992,9.992,0,0,0-.115-3.992,6.2,6.2,0,0,0-1.612-3.022,6.122,6.122,0,0,0-3.939-1.807,7.743,7.743,0,0,0-4.083.6,5.473,5.473,0,0,0-2.94,2.894,7.969,7.969,0,0,0-.581,3.644" transform="translate(-1713.433 1480.793)" fill="#373737"/>
    </g>
    <g id="Group_4" data-name="Group 4" transform="translate(17.918)">
      <path id="Path_4" data-name="Path 4" d="M1600.418-1480.857a21.134,21.134,0,0,1,2.638.229,9.271,9.271,0,0,1,5.117,2.834,9.143,9.143,0,0,1,1.881,3.53,9.887,9.887,0,0,1,.3,4.194,8.315,8.315,0,0,1-4.659,6.8,13.593,13.593,0,0,1-2.656.878,8.8,8.8,0,0,1-2.177.3,22.8,22.8,0,0,1-2.49-.28,7.771,7.771,0,0,1-2.8-.981,8.561,8.561,0,0,1-4.052-4.771,9.9,9.9,0,0,1-.49-4.463,8.646,8.646,0,0,1,3.09-6.076,8.2,8.2,0,0,1,3.666-1.805c.964-.181,1.943-.291,2.637-.391m7.042,9.465a8.248,8.248,0,0,0-.78-3.7,5.9,5.9,0,0,0-4.536-3.348,7.3,7.3,0,0,0-4.157.357,5.971,5.971,0,0,0-3.084,2.5,7.338,7.338,0,0,0-.81,2.576,9.986,9.986,0,0,0-.012,3.245,6.477,6.477,0,0,0,1.329,3.06,6.4,6.4,0,0,0,4.388,2.291,7.164,7.164,0,0,0,3.3-.341,6.36,6.36,0,0,0,2.869-1.943,7.356,7.356,0,0,0,1.491-4.7" transform="translate(-1590.96 1480.857)" fill="#373737"/>
    </g>
    <g id="Group_5" data-name="Group 5" transform="translate(0 0.379)">
      <path id="Path_5" data-name="Path 5" d="M1535.239-1468.745v6.583c0,.62,0,.62-.637.621h-1.621c-.628,0-.647-.019-.647-.634v-16.658c0-.777,0-.779.773-.777,3.111,0,6.225-.037,9.336.038a5.976,5.976,0,0,1,3.468,1.111,4.723,4.723,0,0,1,1.975,3.691,5.23,5.23,0,0,1-1.642,4.369,5.274,5.274,0,0,1-2.457,1.217c-2.615.625-5.275.311-7.917.388-.146,0-.292,0-.438.006a1.241,1.241,0,0,0-.192.046m0-2.485a2.227,2.227,0,0,0,.285.04c2,0,4,.037,6-.022a4.94,4.94,0,0,0,1.831-.462,2.675,2.675,0,0,0,1.589-2.745,2.852,2.852,0,0,0-2.791-2.81c-2.172-.028-4.349-.032-6.523-.062-.314,0-.4.1-.4.4.013,1.255.006,2.51.006,3.766Z" transform="translate(-1532.333 1479.617)" fill="#373737"/>
    </g>
    <g id="Group_6" data-name="Group 6" transform="translate(40.51 0.374)">
      <path id="Path_6" data-name="Path 6" d="M1667.667-1463.923h.58c2.937,0,5.872.009,8.808-.009.437,0,.611.109.571.564-.037.406-.007.817-.009,1.226,0,.587,0,.59-.578.59q-5.567,0-11.131,0c-1.021,0-1.021,0-1.021-1.01q0-8.26-.009-16.52c0-.414.1-.574.533-.547a17.962,17.962,0,0,0,1.8,0c.367-.016.468.112.468.475q-.018,7.339-.007,14.679Z" transform="translate(-1664.877 1479.632)" fill="#373737"/>
    </g>
    <g id="Group_7" data-name="Group 7" transform="translate(102.941 0.381)">
      <path id="Path_7" data-name="Path 7" d="M1874.613-1477.228a47.07,47.07,0,0,1-2.536,6.641.436.436,0,0,1-.287.249c-.832.018-1.666.006-2.5,0-.038,0-.075-.037-.149-.074.344-.808.684-1.614,1.028-2.417.551-1.282,1.106-2.562,1.658-3.845.389-.9.765-1.809,1.175-2.7a.551.551,0,0,1,.417-.221c.819-.021,1.637-.024,2.455,0a.573.573,0,0,1,.408.276c.972,2.083,1.924,4.173,2.885,6.26.344.748.7,1.493,1.05,2.236.2.423.163.494-.323.5-.671,0-1.345-.031-2.015.012a.612.612,0,0,1-.68-.46c-.312-.745-.635-1.485-.939-2.235-.494-1.215-.977-2.436-1.462-3.654-.059-.145-.1-.3-.19-.568" transform="translate(-1869.145 1479.612)" fill="#373737"/>
    </g>
  </g>
  <g id="Group_9" data-name="Group 9" transform="translate(112.911 13.592)">
    <path id="Path_8" data-name="Path 8" d="M1901.765-1436.335c.178-.018.3-.041.427-.041.773,0,1.548-.023,2.319.012a.739.739,0,0,1,.541.317c.652,1.349,1.27,2.711,1.893,4.074.146.32.051.448-.313.451-.8,0-1.6-.009-2.407.006a.536.536,0,0,1-.557-.388c-.621-1.453-1.247-2.906-1.9-4.431" transform="translate(-1901.765 1436.385)" fill="#373737"/>
  </g>
  <g id="Group_10" data-name="Group 10" transform="translate(99.233 13.593)">
    <path id="Path_9" data-name="Path 9" d="M1861.928-1436.321c-.4.978-.769,1.884-1.135,2.792q-.332.819-.659,1.642a.552.552,0,0,1-.609.375c-.686-.022-1.374,0-2.059-.007-.451,0-.544-.118-.373-.518.388-.917.792-1.829,1.191-2.744.174-.4.358-.786.515-1.189a.545.545,0,0,1,.581-.412c.731.016,1.463,0,2.193.008a2.571,2.571,0,0,1,.357.053" transform="translate(-1857.011 1436.382)" fill="#373737"/>
  </g>
</svg>
