<svg xmlns="http://www.w3.org/2000/svg" width="124.202" height="17.13" viewBox="0 0 124.202 17.13">
  <g id="logo" transform="translate(-340.106 -96.777)">
    <path id="Path_928" data-name="Path 928" d="M441.167,113.625H438.8c-.088-1.054-.029-2.087-.04-3.117-.01-1.067,0-2.133,0-3.2v-6.234l-.131-.054a5.293,5.293,0,0,0-.248.485q-2.226,5.684-4.443,11.369c-.31.794-.309.795-1.125.8-.477,0-.955,0-1.516,0l-4.928-12.877-.123,0c-.014.238-.041.478-.041.716q-.005,5.56,0,11.121c0,.313-.028.625-.046.988h-2.445a5.169,5.169,0,0,1-.083-.667q-.006-7.559,0-15.121a5.11,5.11,0,0,1,.069-.58c.234-.022.44-.056.646-.059.613-.008,1.226-.009,1.84,0,1.5.02,1.214-.215,1.743,1.188,1.5,3.979,2.98,7.968,4.469,11.953.037.1.094.189.189.376.1-.215.183-.359.242-.509q2.394-6.176,4.785-12.352c.253-.652.261-.652.986-.655.85,0,1.7,0,2.53,0C441.314,97.817,441.346,112.759,441.167,113.625Z" transform="translate(-12.386 -0.06)"/>
    <path id="Path_929" data-name="Path 929" d="M480.907,109.464V97.233h2.312c.175.54.234,15.2.052,16.432-.747,0-1.513.034-2.273-.022-.21-.015-.44-.27-.592-.468-1.243-1.633-2.467-3.278-3.7-4.919q-2.449-3.262-4.9-6.521c-.091-.122-.206-.227-.458-.5V113.6a13.179,13.179,0,0,1-2.455.048c-.188-.623-.242-15.331-.06-16.45.794,0,1.612-.02,2.427.018.164.008.353.211.473.37q2.969,3.918,5.92,7.849,1.536,2.039,3.074,4.075Z" transform="translate(-19.074 -0.061)"/>
    <path id="Path_930" data-name="Path 930" d="M368.2,98.825a16.016,16.016,0,0,0-1.956.338,5.146,5.146,0,0,0-3.768,3.469,8.849,8.849,0,0,0-.226,4.728,5.419,5.419,0,0,0,2.267,3.365,6.474,6.474,0,0,0,5.179.933,5.424,5.424,0,0,0,4.317-3.82,8.08,8.08,0,0,0,.13-4.488,5.473,5.473,0,0,0-3.211-3.931A7.731,7.731,0,0,0,368.2,98.825Zm.04-2.048a9.679,9.679,0,0,1,4.611,1.1,7.572,7.572,0,0,1,3.968,5.144,9.431,9.431,0,0,1-.358,5.8,7.286,7.286,0,0,1-4.129,4.217,10.063,10.063,0,0,1-8.76-.273,7.471,7.471,0,0,1-4.039-5.535,8.891,8.891,0,0,1,1.345-7,7.852,7.852,0,0,1,5.461-3.267C366.967,96.864,367.606,96.836,368.24,96.777Z" transform="translate(-2.852)"/>
    <path id="Path_931" data-name="Path 931" d="M402.094,105.424l.113.02c0,.213,0,.427,0,.64a5.478,5.478,0,0,0,2.742,4.844,6.437,6.437,0,0,0,5.375.6,5.384,5.384,0,0,0,3.891-4.059,8.922,8.922,0,0,0,.129-3.567,5.374,5.374,0,0,0-3.011-4.341,6.782,6.782,0,0,0-6.228.1,4.605,4.605,0,0,0-2.554,3.106C402.341,103.641,402.243,104.538,402.094,105.424Zm6.269-8.647a9.182,9.182,0,0,1,5.936,2,7.848,7.848,0,0,1,2.778,5.045,9.273,9.273,0,0,1-.29,4.326,7.688,7.688,0,0,1-6.023,5.445,10.167,10.167,0,0,1-6.245-.429,7.64,7.64,0,0,1-4.68-5.108,9.049,9.049,0,0,1,.541-6.821,7.778,7.778,0,0,1,6.082-4.277C407.089,96.859,407.729,96.836,408.363,96.777Z" transform="translate(-8.796 0)"/>
    <path id="Path_932" data-name="Path 932" d="M342.814,104.873c1.354,0,2.627.021,3.9-.007a20.689,20.689,0,0,0,2.69-.182,2.515,2.515,0,0,0,2.21-2.978,2.543,2.543,0,0,0-2.577-2.326c-1.887-.047-3.776-.053-5.664-.069a4,4,0,0,0-.559.075Zm-.055,2.194v6.55h-2.495c-.169-.589-.224-15.2-.059-16.368.209-.02.436-.06.664-.06,2.69,0,5.382-.007,8.072,0a6.613,6.613,0,0,1,2.787.6,4.239,4.239,0,0,1,2.589,3.971,4.866,4.866,0,0,1-.714,2.888,5.228,5.228,0,0,1-3.959,2.239,45.326,45.326,0,0,1-5.82.172C343.512,107.073,343.2,107.066,342.759,107.066Z" transform="translate(0 -0.061)"/>
    <path id="Path_933" data-name="Path 933" d="M383.6,97.24h2.456v14.277c1.049.007,2.024.016,3,.02,1.013,0,2.026,0,3.039,0h3.014v2.007c-.586.169-10.647.2-11.51.03Z" transform="translate(-6.45 -0.069)"/>
    <path id="Path_934" data-name="Path 934" d="M460.652,105.623h-2.7l-2.528-6.034c-.384,1.033-.743,2.054-1.142,3.059-.393.989-.828,1.961-1.258,2.971h-2.555c.083-.248.137-.466.225-.67,1.029-2.4,2.074-4.785,3.085-7.188a.79.79,0,0,1,.893-.584,13.527,13.527,0,0,0,1.6,0,.732.732,0,0,1,.806.483c1.143,2.522,2.3,5.034,3.457,7.551A3.7,3.7,0,0,1,460.652,105.623Z" transform="translate(-16.368 -0.059)"/>
    <path id="Path_935" data-name="Path 935" d="M461.088,111.357c.946,0,1.784-.015,2.621.014a.606.606,0,0,1,.405.319c.589,1.244,1.157,2.5,1.724,3.754.028.063,0,.154-.014.321-.844,0-1.685.014-2.524-.013a.581.581,0,0,1-.425-.279C462.283,114.153,461.717,112.819,461.088,111.357Z" transform="translate(-17.943 -2.162)"/>
    <path id="Path_936" data-name="Path 936" d="M450.963,111.342l-1.8,4.393h-2.685a2.993,2.993,0,0,1,.114-.55c.465-1.1.957-2.185,1.408-3.29a.762.762,0,0,1,.836-.56C449.493,111.364,450.152,111.342,450.963,111.342Z" transform="translate(-15.776 -2.159)"/>
  </g>
</svg>
