<svg xmlns="http://www.w3.org/2000/svg" width="29.366" height="29.856" viewBox="0 0 29.366 29.856">
  <g id="money" transform="translate(0.5 0.501)">
    <g id="Group_1145" data-name="Group 1145" transform="translate(12.254 10.954)">
      <path id="Path_448" data-name="Path 448" d="M-736.185,719.453A1.32,1.32,0,0,0-734.9,720.8h1.451a1.15,1.15,0,0,0,1.121-1.177,1.014,1.014,0,0,0-.767-1.117l-2.326-.814a1.013,1.013,0,0,1-.767-1.117,1.15,1.15,0,0,1,1.121-1.177h1.451a1.32,1.32,0,0,1,1.286,1.35" transform="translate(736.185 -714.629)" fill="none" stroke="#373737" stroke-linecap="round" stroke-linejoin="round" stroke-width="1"/>
      <path id="Path_449" data-name="Path 449" d="M-727.741,712.023v6.946" transform="translate(729.67 -712.023)" fill="none" stroke="#373737" stroke-linecap="round" stroke-linejoin="round" stroke-width="1"/>
    </g>
    <path id="Path_450" data-name="Path 450" d="M-761.446,700.759v9.95a1.388,1.388,0,0,1-1.387,1.389h-25.59a1.341,1.341,0,0,1-.5-.094,1.384,1.384,0,0,1-.889-1.3v-9.95a1.387,1.387,0,0,1,1.387-1.389h25.59a1.333,1.333,0,0,1,.5.094A1.384,1.384,0,0,1-761.446,700.759Z" transform="translate(789.811 -691.306)" fill="none" stroke="#373737" stroke-linecap="round" stroke-linejoin="round" stroke-width="1"/>
    <path id="Path_451" data-name="Path 451" d="M-785.662,754.764h15.795l-6.224,7.556a1.388,1.388,0,0,1-1.954.19l-7.682-6.327a1.391,1.391,0,0,1-.434-1.513A1.34,1.34,0,0,0-785.662,754.764Z" transform="translate(787.05 -733.971)" fill="none" stroke="#373737" stroke-linecap="round" stroke-linejoin="round" stroke-width="1"/>
    <path id="Path_452" data-name="Path 452" d="M-724.585,672.235a1.333,1.333,0,0,0-.5-.094h-15.8l6.226-7.558a1.386,1.386,0,0,1,1.954-.187l7.682,6.327A1.389,1.389,0,0,1-724.585,672.235Z" transform="translate(752.061 -664.078)" fill="none" stroke="#373737" stroke-linecap="round" stroke-linejoin="round" stroke-width="1"/>
    <path id="Path_453" data-name="Path 453" d="M-785.059,699.371v1.789a1.873,1.873,0,0,1-1.874,1.874h-2.882" transform="translate(789.815 -691.307)" fill="none" stroke="#373737" stroke-linecap="round" stroke-linejoin="round" stroke-width="1"/>
    <path id="Path_454" data-name="Path 454" d="M-785.059,742.834v-1.771a1.864,1.864,0,0,0-1.874-1.854h-2.882" transform="translate(789.815 -722.043)" fill="none" stroke="#373737" stroke-linecap="round" stroke-linejoin="round" stroke-width="1"/>
    <path id="Path_455" data-name="Path 455" d="M-686.333,742.708v-1.789a1.867,1.867,0,0,1,1.86-1.873h2.862" transform="translate(709.977 -721.917)" fill="none" stroke="#373737" stroke-linecap="round" stroke-linejoin="round" stroke-width="1"/>
    <path id="Path_456" data-name="Path 456" d="M-686.333,699.371v1.771a1.857,1.857,0,0,0,1.86,1.854h2.862" transform="translate(709.977 -691.307)" fill="none" stroke="#373737" stroke-linecap="round" stroke-linejoin="round" stroke-width="1"/>
  </g>
</svg>
