<?xml version="1.0" encoding="utf-8"?>
<!-- Generator: Adobe Illustrator 25.3.1, SVG Export Plug-In . SVG Version: 6.00 Build 0)  -->
<svg version="1.1" id="order-success-bg" xmlns="http://www.w3.org/2000/svg" xmlns:xlink="http://www.w3.org/1999/xlink" x="0px"
	 y="0px" viewBox="0 0 357.2 202.3" style="enable-background:new 0 0 357.2 202.3;" xml:space="preserve">
<style type="text/css">
	.st0{fill:#C0C2CB;}
	.st1{clip-path:url(#SVGID_2_);}
</style>
<path id="Path_666" class="st0" d="M335.3,166.5l7.8-15c-0.2-1.3-0.4-2.6-0.7-3.9c-1.2-4.2-3.8-0.3-4.9,1.6
	c-0.1,0.3-0.3,0.6-0.5,0.9l-0.1,0.2c-2.3,4.6-3.1,8.7-2.4,12.3C334.9,163.8,335.1,165.2,335.3,166.5 M349.1,133.8
	c1.1,4,1.4,8.2,0.9,12.3l-29.6,56.6c0.3-2.6,0.3-5.2,0-7.7l8.4-16.2c-0.2-1.4-0.4-2.7-0.8-4.1c-3.6-16.5,3-29.8,5.2-34.2l0.1-0.2
	C341.8,125,347.5,128.2,349.1,133.8"/>
<path id="Path_667" class="st0" d="M305.4,142c6.7,6.8,12.5-0.8,15.4-6l0.1-0.2c8.5-17.5,0.9-29.8-8.1-26.6c-4.5,1.6-7.1,6.1-8.1,8
	l-0.1,0.2C298.8,129.4,302.6,138.7,305.4,142 M328.8,97.3c11.8,15.7,4.2,37.2-1.4,48.7l-0.1,0.2c-17,30.5-31.8,11-36.3-3.2
	c-3.9-12-3-25.1,2.5-36.4l0.1-0.2C305.4,86,321.6,88.9,328.8,97.3"/>
<path id="Path_668" class="st0" d="M289.1,62.2c4.5,3.5,8.9,7,13,10.6l-29.6,56.6c-12.2-10.4-25.1-20-38.5-28.8l7.2-13.7
	c9.1,6,17.6,12.1,25.5,18.2L289.1,62.2"/>
<path id="Path_669" class="st0" d="M203.3,65.2c14.2,6.8,21.4-2.2,23.9-6.4l0.1-0.2c8.3-17.9-10.5-30.4-23.9-25
	c-3.7,1.5-6.7,4.3-8.6,7.8l-0.1,0.2C189.2,53.6,197.6,62.1,203.3,65.2 M226.7,20.5c22.9,13.7,24,34.1,17.3,48.6l-0.1,0.2
	c-19,32.1-65,10-70.5-17.4c-1.8-9,0.9-15.1,2.7-19.1l0.1-0.2C189.2,10.8,213.5,13.4,226.7,20.5"/>
<path id="Path_670" class="st0" d="M117.8-19.9c5.3,1.1,10.8,2.5,16.5,4c0.9,9.4,1.4,14.8,2.7,26.1c9.6-6.4,14.9-9.9,26.1-16.9
	c6.1,2.2,12.3,4.6,18.6,7.2l-29.6,56.6c-5.8-2.4-11.6-4.7-17.2-6.7L151.7,18c-11,6.5-16.6,9.9-27.1,16.6l-0.3-0.1
	c-1.7-11.8-2.3-17-3.5-26.6l-17,32.5c-5.3-1.4-10.5-2.7-15.5-3.8L117.8-19.9"/>
<path id="Path_671" class="st0" d="M72.4,10.2c1.1-5.6,1.8-9.4,3.2-16.4c-4.6,5.4-7.8,9.2-13.3,16C65.6,9.8,68.9,9.9,72.4,10.2
	 M79.4-25c3.8,0,7.8,0.2,12,0.5c-1.4,8.8-4.8,29.5-8.4,60c-5.2-1-10.2-1.8-14.9-2.4c0.7-4,1-5.7,1.8-10.5
	c-5.8-0.6-11.6-0.9-17.4-0.8c-3.4,4.1-4.5,5.5-8.3,10.2c-3.8,0.2-7.5,0.6-11.2,1.2C39.8,24.3,55.7,3.2,79.4-25"/>
<path id="Path_672" class="st0" d="M8.5,48.1c0.9-1.7,2-3.3,3.4-4.7c7.9-13,16.5-25.6,25.8-37.6l-16.2,31c2.7-1.2,5.4-2.1,8.3-2.7
	l29.6-56.6c-2.7,0.6-5.3,1.5-7.8,2.6c-9,11.6-17.4,23.6-25.1,36.1L42-13.8c-1.6,1.6-2.9,3.3-3.9,5.3L8.5,48.1"/>
<g id="Group_2044" transform="translate(337.03 14.162)">
	<path id="Path_673" class="st0" d="M-22.6,203c0.8-1.6,1.5-3.3,1.9-5.1l39.6-75.8c-0.4,1.8-1,3.5-1.9,5.1
		C5.1,150-10.7,180.3-22.6,203z"/>
	<g>
		<defs>
			<path id="SVGID_1_" d="M-22.6,203c0.8-1.6,1.5-3.3,1.9-5.1l39.6-75.8c-0.4,1.8-1,3.5-1.9,5.1C5.1,150-10.7,180.3-22.6,203z"/>
		</defs>
		<clipPath id="SVGID_2_">
			<use xlink:href="#SVGID_1_"  style="overflow:visible;"/>
		</clipPath>
		<g id="Group_2043" class="st1">
			<g id="Group_2042" transform="translate(3.818 15.268)">
				<path id="Path_674" class="st0" d="M-21.4,177.6c-0.3,1-0.8,2-1.3,2.9C-12.8,161.7-3,142.8,6.9,124c0.5-0.9,0.9-1.9,1.3-2.9
					L-21.4,177.6"/>
			</g>
		</g>
	</g>
</g>
<path id="Path_676" class="st0" d="M21.7,38.1l7.8-15c0.3,1.3,0.7,2.6,1.1,4c1.4,4.9-0.3,9.3-2,12.5l-0.1,0.2
	c-3.5,6.4-5.2,3.7-5.8,2.3C22.4,40.7,22,39.4,21.7,38.1 M37.7,14.6c-1.5-4.1-2.2-8.4-2.2-12.7L6,58.5c0,2.7,0.3,5.4,0.9,8l8.4-16.2
	c0.3,1.4,0.7,2.8,1.2,4.2c2.8,7,9.4,8.1,17.3-6.2l0.1-0.2C39.7,36.2,41,24.9,37.7,14.6"/>
<path id="Path_677" class="st0" d="M38.6,94.3c-6.9-8.7-1.8-21.1,0-24.7l0.1-0.2c8.4-15.1,17-7.5,19.3,0.8c1.1,4,1.6,10.5-2.1,18.3
	l-0.1,0.2C49.5,99.7,42,98.1,38.6,94.3 M61.9,49.6c-4-4-16.2-16-30.7,9.9l-0.1,0.2c-18,36.9,1,61.5,21.5,53.8
	c8.6-3.3,12.9-10.6,14.9-14.1l0.1-0.2C78.3,76.4,68.5,56.8,61.9,49.6"/>
<path id="Path_678" class="st0" d="M102.4,87c-4.7-3.5-9.2-7-13.5-10.5l-29.6,56.6c12.7,10.3,26,19.9,39.8,28.6l7.2-13.7
	c-9.3-5.9-18.1-12-26.3-18.1L102.4,87"/>
<path id="Path_679" class="st0" d="M144.2,170.7c-11.2-6.5-11.6-16.7-8.2-24l0.1-0.2c9.4-16,30.9-7.6,34.2,5.8
	c0.9,3.8,0.4,7.8-1.3,11.3l-0.1,0.2C162.8,174.1,151.8,174.6,144.2,170.7 M167.6,126c-21.1-9.9-38.9-6.1-48.8,10.5l-0.1,0.2
	c-14.8,32.5,21.8,61.8,51.1,50.6c7.5-2.9,13.7-8.3,17.6-15.4l0.1-0.2C199.9,144.4,173.1,128.8,167.6,126"/>
<path id="Path_680" class="st0" d="M274,166.1c-5.2-1-10.5-2.2-16.1-3.5c-9.3,6.8-14.5,10.6-25.3,18.1c-0.9-8.8-1.5-14.3-3-26.5
	c-6-2.1-12.1-4.3-18.3-6.8L181.9,204c5.8,2.3,11.4,4.4,17,6.3l16.9-32.3c1.7,11.3,2.5,16.6,3.9,27l0.3,0.1
	c10.8-7.2,16-10.7,26.4-18.1l-17,32.5c5.2,1.3,10.2,2.4,15.1,3.3L274,166.1"/>
<path id="Path_681" class="st0" d="M282.8,203.6c4.6-5.4,7.7-9.1,13.4-16c-1.2,5.5-2.1,9.4-3.7,16
	C289.4,203.8,286.2,203.8,282.8,203.6 M311.6,169c-3.6,0.2-7.5,0.1-11.5-0.1c-7.4,8.5-24.9,28.3-50.5,54.7c5,0.8,9.8,1.5,14.5,1.9
	c4.2-4.7,4.7-5.3,8.6-9.8c5.5,0.4,11.1,0.5,16.6,0.1c-1.1,4.7-1.3,5.4-2.4,9.9c3.6-0.3,7.1-0.9,10.6-1.7
	C299.9,215.8,305.4,196.8,311.6,169"/>
<path id="Path_682" class="st0" d="M318.2,210c-0.5,0.9-1,1.7-1.5,2.5c3.4-7.6,6-15.6,7.8-23.7l-16.2,31c-2.4,1.3-5,2.4-7.6,3.2
	l29.6-56.6c2.5-0.8,4.9-1.8,7.2-3c-1.7,7.9-4.1,15.6-7.3,23l15.6-29.9c0.8-1,1.4-2,2-3.2L318.2,210"/>
</svg>
