<svg xmlns="http://www.w3.org/2000/svg" xmlns:xlink="http://www.w3.org/1999/xlink" width="379.488" height="286.649" viewBox="0 0 379.488 286.649">
  <defs>
    <clipPath id="clip-path">
      <path id="Path_675" data-name="Path 675" d="M-6524.155-2379.941a21.717,21.717,0,0,0-1.817-5.085l-18.389-83.465a21.661,21.661,0,0,1,1.816,5.085C-6537.027-2438.368-6529.671-2404.981-6524.155-2379.941Z" transform="translate(6544.361 2468.492)" fill="#c0c2cb"/>
    </clipPath>
  </defs>
  <g id="order-sucess-bg" transform="translate(-41.103 -131.642)">
    <g id="Group_2046" data-name="Group 2046" transform="translate(374.491 223.992) rotate(40)" opacity="0.18">
      <g id="order-success-bg" transform="translate(-260 30)">
        <path id="Path_666" data-name="Path 666" d="M-6564.322-2430.715l-3.631-16.477a38.59,38.59,0,0,0-3.041-2.508c-3.613-2.432-3.1,2.25-2.717,4.376.052.29.137.673.194.961l.04.179c1.2,4.992,3.238,8.67,6.075,10.934a38.769,38.769,0,0,1,3.079,2.535m-10.414-33.9a32.1,32.1,0,0,1,8.583,8.813l13.735,62.346a28.959,28.959,0,0,0-5-5.906l-3.924-17.813a38.657,38.657,0,0,0-3.224-2.642c-13.323-10.319-16.865-24.759-18.029-29.5l-.038-.179c-3.362-17.15,3.058-18.372,7.894-15.114" transform="translate(6904.968 2481.186)" fill="#c0c2cb"/>
        <path id="Path_667" data-name="Path 667" d="M-6681.466-2450.983c9.5.953,9.051-8.671,7.94-14.493l-.04-.179c-4.684-18.851-18.5-23.433-23.267-15.174-2.407,4.173-1.485,9.212-1.093,11.364l.04.176c3.312,12.929,12.188,17.627,16.419,18.306m-10.852-49.254c19.167,4.41,27.164,25.8,30.225,38.156l.039.177c6.588,34.222-17.262,28.872-29.844,20.92a48.509,48.509,0,0,1-21.442-29.513l-.039-.179c-4.059-23.159,10.168-31.331,21.062-29.561" transform="translate(6983.462 2501.886)" fill="#c0c2cb"/>
        <path id="Path_668" data-name="Path 668" d="M-6823.78-2503.755q8.6-.333,16.734-.25l13.736,62.346a387.228,387.228,0,0,0-48.011,2.7l-3.335-15.14c10.788-1.247,21.257-2.06,31.275-2.448l-10.4-47.206" transform="translate(7061.984 2504.021)" fill="#c0c2cb"/>
        <path id="Path_669" data-name="Path 669" d="M-7015.9-2434.626c15.25-3.89,15.017-15.444,14.208-20.229l-.039-.18c-5.165-19.076-27.607-16.568-34.335-3.81a17.358,17.358,0,0,0-1.618,11.5l.039.176c3.5,12.762,15.315,13.887,21.745,12.54m-10.851-49.254c26.332-4.243,40.27,10.706,44.533,26.111l.038.177c6.076,36.816-43.313,49.443-65.188,31.954-7.2-5.755-8.986-12.143-10.17-16.37l-.041-.179c-4.074-25.027,16.2-38.645,30.828-41.692" transform="translate(7190.353 2492.348)" fill="#c0c2cb"/>
        <path id="Path_670" data-name="Path 670" d="M-7253.838-2423.206q7.206-3.825,15.2-7.5c6.728,6.642,10.58,10.4,18.81,18.281,3.229-11.039,5.09-17.187,9.1-29.716q9.12-3.33,18.873-6.4l13.735,62.346q-9.028,2.839-17.534,5.915l-7.849-35.627c-4.221,12.057-6.295,18.257-10.088,30.155l-.334.137c-8.844-7.961-12.7-11.507-19.8-18.118l7.889,35.806q-7.475,3.465-14.264,7.071l-13.736-62.346" transform="translate(7308.061 2470.658)" fill="#c0c2cb"/>
        <path id="Path_671" data-name="Path 671" d="M-7318.561-2312.26c-2.8-5.006-4.688-8.391-8.084-14.636-.019,7.122-.023,12.074.053,20.784q3.735-3.083,8.031-6.148m-17.252-31.395q4.377-3.674,9.55-7.322c4.564,7.681,15.255,25.669,32.172,51.345q-6.9,3.847-12.955,7.8c-2.075-3.536-2.935-5-5.364-9.2a144.093,144.093,0,0,0-13.812,10.566c.073,5.305.1,7.093.219,13.139a84.974,84.974,0,0,0-7.806,8.167c-.613-11.3-2.048-37.753-2-74.5" transform="translate(7357.361 2411.982)" fill="#c0c2cb"/>
        <path id="Path_672" data-name="Path 672" d="M-7375.637-2208.743a21.542,21.542,0,0,1-.466-5.774,410.088,410.088,0,0,1-4.415-45.384l7.534,34.2a47.936,47.936,0,0,1,4.582-7.416l-13.736-62.346a48.551,48.551,0,0,0-4.372,7,414.55,414.55,0,0,0,3.988,43.754l-7.261-32.953a21.711,21.711,0,0,0,.409,6.577l13.736,62.347" transform="translate(7389.869 2378.597)" fill="#c0c2cb"/>
        <g id="Group_2044" data-name="Group 2044" transform="translate(337.03 14.162)" style="isolation: isolate">
          <path id="Path_673" data-name="Path 673" d="M-6524.155-2379.941a21.717,21.717,0,0,0-1.817-5.085l-18.389-83.465a21.661,21.661,0,0,1,1.816,5.085C-6537.027-2438.368-6529.671-2404.981-6524.155-2379.941Z" transform="translate(6544.361 2468.492)" fill="#c0c2cb"/>
          <g id="Group_2043" data-name="Group 2043" clip-path="url(#clip-path)">
            <g id="Group_2042" data-name="Group 2042" transform="translate(3.818 15.268)">
              <path id="Path_674" data-name="Path 674" d="M-6521.047-2367.844a21.415,21.415,0,0,1,.911,3.034q-6.869-31.173-13.737-62.346a21.083,21.083,0,0,0-.91-3.034l13.736,62.346" transform="translate(6534.783 2430.19)" fill="#c0c2cb"/>
            </g>
          </g>
        </g>
        <path id="Path_676" data-name="Path 676" d="M-7364.106-2173.7l-3.63-16.477q1.6,1.224,3.412,2.363c4.19,2.829,5.713,7.293,6.569,10.866l.039.179c1.43,7.2-1.578,6.213-2.938,5.456q-1.833-1.151-3.452-2.387m-2.813-28.26a37.608,37.608,0,0,1-9.845-8.333l13.736,62.346a33.681,33.681,0,0,0,5.829,5.6l-3.924-17.813q1.688,1.291,3.611,2.487c6.627,3.588,12.354.15,9.269-15.875l-.04-.18c-3.188-12.954-9.458-22.451-18.637-28.229" transform="translate(7381.988 2327.374)" fill="#c0c2cb"/>
        <path id="Path_677" data-name="Path 677" d="M-7265.812-2112.212c-10.892-2.169-14.918-14.993-15.892-18.872l-.04-.18c-3.225-16.968,8.263-16.675,15.325-11.761,3.427,2.385,7.966,6.98,10.127,15.327l.039.177c2.278,12.466-4.469,15.985-9.56,15.309m-10.852-49.254c-5.607-.459-22.672-1.856-17.123,27.317l.039.176c9.939,39.82,40.324,46.471,51.01,27.4,4.492-8.019,3.038-16.4,2.339-20.431l-.039-.179c-6.454-24.2-26.519-33.006-36.226-34.281" transform="translate(7332.745 2298.111)" fill="#c0c2cb"/>
        <path id="Path_678" data-name="Path 678" d="M-7136.906-2154.4q-8.773.5-17.11.589l13.735,62.347a406.638,406.638,0,0,0,48.906-3.639l-3.337-15.141c-10.932,1.45-21.572,2.463-31.794,3.049l-10.4-47.206" transform="translate(7248.029 2293.761)" fill="#c0c2cb"/>
        <path id="Path_679" data-name="Path 679" d="M-6959.062-2137.4c-12.782,2.248-19.617-5.3-21.752-13.108l-.039-.179c-3.115-18.306,18.766-25.645,29.958-17.507a16.5,16.5,0,0,1,6.239,9.528l.039.177c1.989,11.814-6.093,19.214-14.445,21.09m-10.852-49.254c-22.557,5.979-33.7,20.346-30.576,39.419l.039.176c9.533,34.383,56.392,33.359,71.671,5.872a33.739,33.739,0,0,0,3.586-23.054l-.04-.179c-8.062-28.94-38.633-23.6-44.68-22.234" transform="translate(7156.011 2313.931)" fill="#c0c2cb"/>
        <path id="Path_680" data-name="Path 680" d="M-6744.176-2279.36q-6.886,3.872-14.587,7.615c-2.7,11.179-4.273,17.409-7.714,30.109-6.357-6.151-10.334-9.974-19.307-18.42q-8.868,3.42-18.387,6.6l13.735,62.347q8.814-2.94,17.085-6.1l-7.849-35.626c8.563,7.551,12.549,11.114,20.3,18.151l.324-.14c3.653-12.432,5.331-18.48,8.55-30.815l7.889,35.806q7.2-3.526,13.691-7.177l-13.736-62.347" transform="translate(7037.637 2368.913)" fill="#c0c2cb"/>
        <path id="Path_681" data-name="Path 681" d="M-6595.37-2289.273c.035-7.111.054-11.921-.006-20.822,2.6,5.027,4.4,8.522,7.474,14.657q-3.447,3.087-7.468,6.165m-.212-45.043q-4.03,3.677-8.876,7.343c-.259,11.28-.868,37.7-3.512,74.328q6.577-3.889,12.286-7.866c.155-6.306.176-7.116.288-13.084a125.851,125.851,0,0,0,12.84-10.6c2.131,4.292,2.459,4.952,4.494,9.129a72.183,72.183,0,0,0,6.99-8.142c-3.389-7.732-11.324-25.841-24.511-51.111" transform="translate(6919.645 2401.962)" fill="#c0c2cb"/>
        <path id="Path_682" data-name="Path 682" d="M-6526.478-2360.233a21.23,21.23,0,0,1,.432,2.922,124.22,124.22,0,0,0-9.309-23.169l7.535,34.2a40.375,40.375,0,0,1-3.772,7.353l-13.735-62.346a40.836,40.836,0,0,0,3.61-6.938,128.489,128.489,0,0,1,9.242,22.3l-7.261-32.953a21.168,21.168,0,0,0-.479-3.711l13.736,62.346" transform="translate(6881.972 2455.043)" fill="#c0c2cb"/>
      </g>
    </g>
  </g>
</svg>
