<svg xmlns="http://www.w3.org/2000/svg" width="17.563" height="14.442" viewBox="0 0 17.563 14.442">
  <g id="password-toggle" transform="translate(721.954 -203.703)">
    <g id="Group_741" data-name="Group 741" transform="translate(-721.25 206.239)">
      <path id="Path_203" data-name="Path 203" d="M-721.25,221.29c3.579-4.544,7.84-5.774,11.9-3.726" transform="translate(721.25 -216.606)" fill="none" stroke="#373737" stroke-linecap="round" stroke-linejoin="round" stroke-width="1"/>
      <path id="Path_204" data-name="Path 204" d="M-716.786,251.576a14.4,14.4,0,0,1-4.464-3.726" transform="translate(721.25 -243.166)" fill="none" stroke="#373737" stroke-linecap="round" stroke-linejoin="round" stroke-width="1"/>
    </g>
    <path id="Path_205" data-name="Path 205" d="M-680.094,230.639l-3.813,3.822a2.691,2.691,0,0,1-.793-1.912,2.7,2.7,0,0,1,2.7-2.7A2.7,2.7,0,0,1-680.094,230.639Z" transform="translate(-31.07 -21.626)" fill="none" stroke="#373737" stroke-linecap="round" stroke-linejoin="round" stroke-width="1"/>
    <path id="Path_206" data-name="Path 206" d="M-710.03,217.437l2.781-2.789,1.81-1.814,3.813-3.822,1.81-1.816,2.781-2.787" transform="translate(-9.538)" fill="none" stroke="#373737" stroke-linecap="round" stroke-linejoin="round" stroke-width="1"/>
    <path id="Path_207" data-name="Path 207" d="M-663.662,234.04a17.6,17.6,0,0,1,2.022,2.07c-2.655,3.372-5.685,4.919-8.73,4.655" transform="translate(-43.252 -25.188)" fill="none" stroke="#373737" stroke-linecap="round" stroke-linejoin="round" stroke-width="1"/>
  </g>
</svg>
