<svg xmlns="http://www.w3.org/2000/svg" width="19.058" height="19.428" viewBox="0 0 19.058 19.428">
  <g id="pg-2" transform="translate(0.625 0.55)">
    <g id="Group_1579" data-name="Group 1579" transform="translate(6.622 10.04)">
      <line id="Line_98" data-name="Line 98" x1="4.563" transform="translate(0 2.23)" fill="none" stroke="#fff" stroke-linecap="round" stroke-linejoin="round" stroke-width="1.25"/>
      <line id="Line_99" data-name="Line 99" y2="4.563" transform="translate(2.282)" fill="none" stroke="#fff" stroke-linecap="round" stroke-linejoin="round" stroke-width="1.25"/>
    </g>
    <g id="Group_1580" data-name="Group 1580" transform="translate(0 0)">
      <path id="Path_534" data-name="Path 534" d="M347.419,246.927" transform="translate(-335.859 -234.015)" fill="none" stroke="#fff" stroke-linecap="round" stroke-linejoin="round" stroke-width="1.25"/>
      <path id="Path_535" data-name="Path 535" d="M344.734,233.254l-.026.062-2.645,6.143h-2.6a4.453,4.453,0,0,0-1.754.356L339.3,236l.036-.089.062-.143a1.44,1.44,0,0,1,.072-.16C340.665,232.844,342.019,232.211,344.734,233.254Z" transform="translate(-335.011 -232.78)" fill="none" stroke="#fff" stroke-linecap="round" stroke-linejoin="round" stroke-width="1.25"/>
      <path id="Path_536" data-name="Path 536" d="M350.074,239.691a4.46,4.46,0,0,0-1.291-.187h-6.3l2.645-6.143.026-.062c.133.044.267.107.4.16l2.022.846a6.029,6.029,0,0,1,2.386,1.532,2.786,2.786,0,0,1,.232.329,1.761,1.761,0,0,1,.186.392,1.243,1.243,0,0,1,.08.241A4.461,4.461,0,0,1,350.074,239.691Z" transform="translate(-335.428 -232.826)" fill="none" stroke="#fff" stroke-linecap="round" stroke-linejoin="round" stroke-width="1.25"/>
      <path id="Path_537" data-name="Path 537" d="M347.419,246.927" transform="translate(-335.859 -234.015)" fill="none" stroke="#fff" stroke-linecap="round" stroke-linejoin="round" stroke-width="1.25"/>
      <path id="Path_538" data-name="Path 538" d="M352.561,244.55v1.781c0,.187-.009.365-.018.543-.169,3.2-1.949,4.8-5.324,4.8H340.1a5.243,5.243,0,0,1-.65-.044q-4.354-.294-4.647-4.648a5.244,5.244,0,0,1-.045-.65V244.55a4.44,4.44,0,0,1,4.452-4.452h8.9a4.435,4.435,0,0,1,4.452,4.452Z" transform="translate(-334.753 -233.419)" fill="none" stroke="#fff" stroke-linecap="round" stroke-linejoin="round" stroke-width="1.25"/>
      <path id="Path_539" data-name="Path 539" d="M339.044,236.313l-1.594,3.81a4.467,4.467,0,0,0-2.7,4.1v-2.671A5.333,5.333,0,0,1,339.044,236.313Z" transform="translate(-334.753 -233.089)" fill="none" stroke="#fff" stroke-linecap="round" stroke-linejoin="round" stroke-width="1.25"/>
      <path id="Path_540" data-name="Path 540" d="M353.962,241.6v2.671A4.459,4.459,0,0,0,350.8,240a4.461,4.461,0,0,0,.382-2.893,1.251,1.251,0,0,0-.08-.241A5.337,5.337,0,0,1,353.962,241.6Z" transform="translate(-336.154 -233.137)" fill="none" stroke="#fff" stroke-linecap="round" stroke-linejoin="round" stroke-width="1.25"/>
    </g>
  </g>
</svg>
