<svg xmlns="http://www.w3.org/2000/svg" width="13.661" height="13.658" viewBox="0 0 13.661 13.658">
  <g id="reason-1" transform="translate(-1166.711 -361.548)">
    <path id="Path_634" data-name="Path 634" d="M-1783.216,1427.642l-1.406,9.84a7.5,7.5,0,0,0-5,0,8.651,8.651,0,0,1-5.082-.13l.275-1.927a7.7,7.7,0,0,0,3.378-.245,7.507,7.507,0,0,1,5,0l1.133-7.93A6.342,6.342,0,0,1-1783.216,1427.642Z" transform="translate(2963.213 -1062.98)" fill="none" stroke="#8e9095" stroke-linecap="round" stroke-linejoin="round" stroke-width="0.75"/>
    <path id="Path_635" data-name="Path 635" d="M-1812.586,1379.715l-.273,1.91-1.133,7.93a7.5,7.5,0,0,0-5,0,7.711,7.711,0,0,1-3.378.245,11.15,11.15,0,0,1-1.7-.375l1.405-9.841a8.652,8.652,0,0,0,5.083.13A7.505,7.505,0,0,1-1812.586,1379.715Z" transform="translate(2991.156 -1017.355)" fill="none" stroke="#8e9095" stroke-linecap="round" stroke-linejoin="round" stroke-width="0.75"/>
  </g>
</svg>
