<svg xmlns="http://www.w3.org/2000/svg" width="13.205" height="14.181" viewBox="0 0 13.205 14.181">
  <g id="remove-8E" transform="translate(0.409 0.375)">
    <path id="Path_1390" data-name="Path 1390" d="M783.943,408.917c-2.292-.222-4.6-.336-6.9-.336q-2.044,0-4.088.2l-1.4.134" transform="translate(-771.556 -406.244)" fill="none" stroke="#8e9095" stroke-linecap="round" stroke-linejoin="round" stroke-width="0.75"/>
    <path id="Path_1391" data-name="Path 1391" d="M804.026,390.031l.151-.88c.11-.638.193-1.115,1.356-1.115h1.8c1.163,0,1.252.5,1.355,1.121l.151.873" transform="translate(-800.241 -388.036)" fill="none" stroke="#8e9095" stroke-linecap="round" stroke-linejoin="round" stroke-width="0.75"/>
    <path id="Path_1392" data-name="Path 1392" d="M793.677,430.189l-.447,6.763c-.076,1.054-.138,1.874-2.057,1.874h-4.418c-1.92,0-1.982-.819-2.058-1.874l-.447-6.763" transform="translate(-782.77 -425.394)" fill="none" stroke="#8e9095" stroke-linecap="round" stroke-linejoin="round" stroke-width="0.75"/>
    <path id="Path_1393" data-name="Path 1393" d="M814.83,473.641h2.292" transform="translate(-809.786 -463.903)" fill="none" stroke="#8e9095" stroke-linecap="round" stroke-linejoin="round" stroke-width="0.75"/>
    <path id="Path_1394" data-name="Path 1394" d="M809.93,450.026h3.441" transform="translate(-805.457 -442.975)" fill="none" stroke="#8e9095" stroke-linecap="round" stroke-linejoin="round" stroke-width="0.75"/>
  </g>
</svg>
