<svg xmlns="http://www.w3.org/2000/svg" width="14.968" height="14.968" viewBox="0 0 14.968 14.968">
  <g id="search" transform="translate(-1491.302 -98.078)">
    <path id="Path_939" data-name="Path 939" d="M1498.536,98.374a5.423,5.423,0,0,1,5.016,3.352,5.432,5.432,0,0,1,0,4.156,5.438,5.438,0,0,1-3.957,3.248,5.444,5.444,0,0,1-4.076-.811,5.471,5.471,0,0,1-1.5-1.5,5.429,5.429,0,0,1,0-6.033,5.323,5.323,0,0,1,.676-.822,5.382,5.382,0,0,1,1.761-1.177,5.451,5.451,0,0,1,2.078-.414Z" transform="translate(-1.179 0.329)" fill="none" stroke="#373737" stroke-linecap="round" stroke-linejoin="round" stroke-width="1.25"/>
    <line id="Line_135" data-name="Line 135" x2="4.19" y2="4.19" transform="translate(1501.196 107.972)" fill="none" stroke="#373737" stroke-linecap="round" stroke-linejoin="round" stroke-width="1.25"/>
  </g>
</svg>
