<svg xmlns="http://www.w3.org/2000/svg" width="20.105" height="19.241" viewBox="0 0 20.105 19.241">
  <g id="setting-C0" transform="translate(-33.488 6.611)">
    <circle id="Ellipse_166" data-name="Ellipse 166" cx="2.866" cy="2.866" r="2.866" transform="translate(40.675 0.144)" fill="none" stroke="#c0c2cb" stroke-linecap="round" stroke-linejoin="round" stroke-width="1"/>
    <path id="Path_845" data-name="Path 845" d="M33.988,3.851V2.169A1.817,1.817,0,0,1,35.8.357h0c1.728,0,2.434-1.224,1.569-2.72h0a1.816,1.816,0,0,1,.666-2.478l1.649-.948a1.6,1.6,0,0,1,2.176.573l.107.186c.864,1.5,2.277,1.5,3.14,0l.107-.186a1.6,1.6,0,0,1,2.176-.573l1.649.948a1.816,1.816,0,0,1,.666,2.478h0c-.865,1.5-.158,2.72,1.569,2.72h0a1.817,1.817,0,0,1,1.812,1.812V3.851a1.818,1.818,0,0,1-1.812,1.812h0c-1.728,0-2.434,1.224-1.569,2.719h0a1.816,1.816,0,0,1-.666,2.478l-1.649.948a1.6,1.6,0,0,1-2.176-.573l-.107-.186c-.863-1.5-2.276-1.5-3.14,0l-.107.186a1.6,1.6,0,0,1-2.176.573l-1.649-.948a1.816,1.816,0,0,1-.666-2.478h0c.865-1.5.158-2.719-1.569-2.719h0A1.818,1.818,0,0,1,33.988,3.851Z" fill="none" stroke="#c0c2cb" stroke-linecap="round" stroke-linejoin="round" stroke-width="1"/>
  </g>
</svg>
