<svg id="social-google" xmlns="http://www.w3.org/2000/svg" width="17.69" height="17.692" viewBox="0 0 17.69 17.692">
  <path id="Path_209" data-name="Path 209" d="M17.279,16A5.17,5.17,0,0,1,7.244,17.753L4.285,20.12A8.841,8.841,0,0,0,20.95,16" transform="translate(-3.26 -7.155)" fill="#00ac47"/>
  <path id="Path_210" data-name="Path 210" d="M22.669,16A5.165,5.165,0,0,1,20.5,20.2l2.926,2.34A8.814,8.814,0,0,0,26.34,16" transform="translate(-8.65 -7.155)" fill="#4285f4"/>
  <path id="Path_211" data-name="Path 211" d="M6.421,13.948A5.134,5.134,0,0,1,6.734,12.2L3.775,9.828a8.794,8.794,0,0,0,0,8.24L6.734,15.7A5.134,5.134,0,0,1,6.421,13.948Z" transform="translate(-2.75 -5.103)" fill="#ffba00"/>
  <path id="Path_212" data-name="Path 212" d="M8.718,13.374Z" transform="translate(-4.734 -6.282)" fill="#2ab2db"/>
  <path id="Path_213" data-name="Path 213" d="M12.105,6.421a5.134,5.134,0,0,1,3.043,1l2.71-2.53A8.822,8.822,0,0,0,4.285,7.475L7.244,9.842A5.177,5.177,0,0,1,12.105,6.421Z" transform="translate(-3.26 -2.75)" fill="#ea4435"/>
  <path id="Path_214" data-name="Path 214" d="M8.718,18.626Z" transform="translate(-4.734 -8.028)" fill="#2ab2db"/>
  <path id="Path_215" data-name="Path 215" d="M25.011,14.668v.668l-1.5,2.336H16.5V14h7.844A.668.668,0,0,1,25.011,14.668Z" transform="translate(-7.321 -6.49)" fill="#4285f4"/>
</svg>
