<svg xmlns="http://www.w3.org/2000/svg" width="22.033" height="15.066" viewBox="0 0 22.033 15.066">
  <g id="vb-2" transform="translate(221.614 637.024)">
    <path id="Path_1400" data-name="Path 1400" d="M-214.972-636.524v14.066h-4.578a1.565,1.565,0,0,1-1.564-1.568v-3.329a2.136,2.136,0,0,0,2.135-2.138,2.136,2.136,0,0,0-2.135-2.138v-3.325a1.565,1.565,0,0,1,1.564-1.568Z" transform="translate(0)" fill="none" stroke="#5f839e" stroke-linecap="round" stroke-linejoin="round" stroke-width="1"/>
    <path id="Path_1401" data-name="Path 1401" d="M-202.384-622.458v-14.066h13.326a1.565,1.565,0,0,1,1.564,1.568v3.329a2.136,2.136,0,0,0-2.135,2.138,2.136,2.136,0,0,0,2.135,2.138v3.325a1.565,1.565,0,0,1-1.564,1.568Z" transform="translate(-12.588)" fill="none" stroke="#5f839e" stroke-linecap="round" stroke-linejoin="round" stroke-width="1"/>
    <g id="Group_4844" data-name="Group 4844" transform="translate(-211.303 -632.31)">
      <circle id="Ellipse_232" data-name="Ellipse 232" cx="1.219" cy="1.219" r="1.219" transform="translate(0 0)" fill="none" stroke="#5f839e" stroke-linecap="round" stroke-linejoin="round" stroke-width="1"/>
      <circle id="Ellipse_233" data-name="Ellipse 233" cx="1.219" cy="1.219" r="1.219" transform="translate(3.962 3.468)" fill="none" stroke="#5f839e" stroke-linecap="round" stroke-linejoin="round" stroke-width="1"/>
      <line id="Line_187" data-name="Line 187" x1="4.683" y2="5.906" transform="translate(0.95 0)" fill="none" stroke="#5f839e" stroke-linecap="round" stroke-linejoin="round" stroke-width="1"/>
    </g>
  </g>
</svg>
