<svg xmlns="http://www.w3.org/2000/svg" width="30.456" height="21.458" viewBox="0 0 30.456 21.458">
  <g id="voucher-special-icon" transform="translate(6374.227 -1241.304)">
    <path id="Path_1408" data-name="Path 1408" d="M-566.906-697.122a2.882,2.882,0,0,1-2.882,2.882v2.815a4.533,4.533,0,0,0-4.533,4.532h-14.626a4.532,4.532,0,0,0-4.532-4.532v-2.815a2.882,2.882,0,0,1-2.882-2.882A2.882,2.882,0,0,1-593.48-700v-2.815a4.532,4.532,0,0,0,4.532-4.532h14.626a4.533,4.533,0,0,0,4.533,4.532V-700A2.882,2.882,0,0,1-566.906-697.122Z" transform="translate(-5777.365 1949.154)" fill="none" stroke="#fff" stroke-linecap="round" stroke-linejoin="round" stroke-width="1"/>
    <g id="Group_4853" data-name="Group 4853" transform="translate(-6368.092 1247.726)">
      <path id="Path_1409" data-name="Path 1409" d="M-559.431-665.5v-.366l.324-.063v-2.183l-.324-.063v-.368h1.3v.368l-.368.063v2.143h.859l.029-.445h.466v.913Z" transform="translate(559.431 668.539)" fill="#fff"/>
      <path id="Path_1410" data-name="Path 1410" d="M-543-665.5v-.366l.324-.063v-2.183l-.324-.063v-.368h1.258v.368l-.324.063v2.183l.324.063v.366Z" transform="translate(545.509 668.539)" fill="#fff"/>
      <path id="Path_1411" data-name="Path 1411" d="M-533.227-665.5v-.366l.324-.063v-2.183l-.324-.063v-.368H-532l.829,2.12h.013l.8-2.12h1.228v.368l-.326.063v2.183l.326.063v.366h-1.26v-.366l.341-.063v-.583l.011-1.372-.013,0-.909,2.344h-.462l-.93-2.325-.013,0,.036,1.291v.645l.359.063v.366Z" transform="translate(537.225 668.539)" fill="#fff"/>
      <path id="Path_1412" data-name="Path 1412" d="M-504.941-665.5v-.366l.324-.063v-2.183l-.324-.063v-.368h1.257v.368l-.324.063v2.183l.324.063v.366Z" transform="translate(513.256 668.539)" fill="#fff"/>
      <path id="Path_1413" data-name="Path 1413" d="M-494.593-665.5v-.366l.326-.063v-2.143h-.554l-.033.363h-.462v-.834h2.714v.834h-.464l-.033-.363h-.558v2.143l.328.063v.366Z" transform="translate(505.099 668.539)" fill="#fff"/>
      <path id="Path_1414" data-name="Path 1414" d="M-476.15-665.5v-.366l.324-.063v-2.183l-.324-.063v-.368h2.361v.821h-.468l-.027-.351h-.932v.765h1.03v.47h-1.03v.869h.982l.027-.363h.464v.831Z" transform="translate(488.858 668.539)" fill="#fff"/>
      <path id="Path_1415" data-name="Path 1415" d="M-458.243-665.5v-.366l.328-.069V-668.1l-.328-.071v-.368h1.335a1.346,1.346,0,0,1,.719.191,1.315,1.315,0,0,1,.486.529,1.661,1.661,0,0,1,.174.774v.056a1.669,1.669,0,0,1-.172.77,1.312,1.312,0,0,1-.482.529,1.328,1.328,0,0,1-.716.192Zm.938-.466h.374a.69.69,0,0,0,.428-.133.832.832,0,0,0,.269-.365,1.412,1.412,0,0,0,.093-.528v-.059a1.416,1.416,0,0,0-.093-.532.818.818,0,0,0-.269-.361.7.7,0,0,0-.428-.131h-.374Z" transform="translate(473.683 668.539)" fill="#fff"/>
    </g>
    <g id="Group_4854" data-name="Group 4854" transform="translate(-6365.734 1254.104)">
      <path id="Path_1416" data-name="Path 1416" d="M-543.973-624.211v-.278l.246-.048v-1.658l-.246-.048v-.279h1.793v.623h-.355l-.021-.266h-.707v.581h.782v.357h-.782v.66h.746l.021-.276h.352v.632Z" transform="translate(543.973 626.554)" fill="#fff"/>
      <path id="Path_1417" data-name="Path 1417" d="M-530.373-624.211v-.278l.249-.052v-1.647l-.249-.054v-.279h1.014a1.022,1.022,0,0,1,.546.145,1,1,0,0,1,.369.4,1.262,1.262,0,0,1,.132.588v.043a1.266,1.266,0,0,1-.131.585,1,1,0,0,1-.366.4,1.009,1.009,0,0,1-.544.146Zm.712-.354h.284a.524.524,0,0,0,.325-.1.633.633,0,0,0,.2-.277,1.07,1.07,0,0,0,.071-.4v-.044a1.072,1.072,0,0,0-.071-.4.623.623,0,0,0-.2-.275.53.53,0,0,0-.325-.1h-.284Z" transform="translate(532.448 626.554)" fill="#fff"/>
      <path id="Path_1418" data-name="Path 1418" d="M-515.547-624.211v-.278l.246-.048v-1.658l-.246-.048v-.279h.955v.279l-.246.048v1.658l.246.048v.278Z" transform="translate(519.885 626.554)" fill="#fff"/>
      <path id="Path_1419" data-name="Path 1419" d="M-507.688-624.211v-.278l.247-.048v-1.628h-.42l-.025.276h-.351v-.633h2.061v.633h-.352l-.025-.276h-.424v1.628l.249.048v.278Z" transform="translate(513.69 626.554)" fill="#fff"/>
      <path id="Path_1420" data-name="Path 1420" d="M-493.682-624.211v-.278l.246-.048v-1.658l-.246-.048v-.279h.955v.279l-.246.048v1.658l.246.048v.278Z" transform="translate(501.356 626.554)" fill="#fff"/>
      <path id="Path_1421" data-name="Path 1421" d="M-485.12-624.362a1.015,1.015,0,0,1-.425-.087.969.969,0,0,1-.331-.245,1.107,1.107,0,0,1-.213-.371,1.408,1.408,0,0,1-.075-.467v-.035a1.4,1.4,0,0,1,.075-.466,1.125,1.125,0,0,1,.213-.372.958.958,0,0,1,.33-.246,1.017,1.017,0,0,1,.425-.087,1.031,1.031,0,0,1,.428.087.97.97,0,0,1,.333.246,1.121,1.121,0,0,1,.215.372,1.386,1.386,0,0,1,.075.466v.035a1.392,1.392,0,0,1-.075.467,1.112,1.112,0,0,1-.215.371.977.977,0,0,1-.332.245A1.025,1.025,0,0,1-485.12-624.362Zm0-.36a.515.515,0,0,0,.327-.1.614.614,0,0,0,.2-.284,1.249,1.249,0,0,0,.066-.425v-.038a1.221,1.221,0,0,0-.067-.421.617.617,0,0,0-.2-.283.516.516,0,0,0-.326-.1.505.505,0,0,0-.322.1.6.6,0,0,0-.193.281,1.265,1.265,0,0,0-.064.424v.038a1.278,1.278,0,0,0,.064.425.606.606,0,0,0,.194.284A.506.506,0,0,0-485.12-624.723Z" transform="translate(494.985 626.739)" fill="#fff"/>
      <path id="Path_1422" data-name="Path 1422" d="M-471.224-624.211v-.278l.246-.048v-1.658l-.246-.048v-.279h.716l1.006,1.6h.009v-1.274l-.3-.048v-.279h.957v.279l-.248.048v1.983h-.447l-1.028-1.586-.009,0v1.26l.3.048v.278Z" transform="translate(482.325 626.554)" fill="#fff"/>
    </g>
    <line id="Line_189" data-name="Line 189" x2="11.732" transform="translate(-6364.866 1244.866)" fill="none" stroke="#fff" stroke-linecap="round" stroke-linejoin="round" stroke-width="1"/>
    <line id="Line_190" data-name="Line 190" x2="11.732" transform="translate(-6364.866 1259.308)" fill="none" stroke="#fff" stroke-linecap="round" stroke-linejoin="round" stroke-width="1"/>
    <line id="Line_191" data-name="Line 191" x2="18.243" transform="translate(-6368.121 1252.459)" fill="none" stroke="#fff" stroke-linecap="round" stroke-linejoin="round" stroke-width="1"/>
  </g>
</svg>
