<svg xmlns="http://www.w3.org/2000/svg" width="18.273" height="14.819" viewBox="0 0 18.273 14.819">
  <g id="voucher-37" transform="translate(254.5 -707.5)">
    <path id="Path_257" data-name="Path 257" d="M-238.886,715.341a2.159,2.159,0,0,1,2.159-2.159v-.864c0-3.455-.864-4.318-4.318-4.318h-8.637c-3.455,0-4.318.864-4.318,4.318v.432a2.159,2.159,0,0,1,2.159,2.159A2.159,2.159,0,0,1-254,717.069v.432c0,3.455.864,4.318,4.318,4.318h8.637c3.455,0,4.318-.864,4.318-4.318A2.159,2.159,0,0,1-238.886,715.341Z" transform="translate(0 0)" fill="none" stroke="#373737" stroke-linecap="round" stroke-linejoin="round" stroke-width="1"/>
    <g id="Group_875" data-name="Group 875" transform="translate(-248.271 712.274)">
      <path id="Path_258" data-name="Path 258" d="M-241,718.884H-241" transform="translate(246.499 -713.758)" fill="none" stroke="#373737" stroke-linecap="round" stroke-linejoin="round" stroke-width="1"/>
      <path id="Path_259" data-name="Path 259" d="M-247,713.884H-247" transform="translate(247.317 -713.076)" fill="none" stroke="#373737" stroke-linecap="round" stroke-linejoin="round" stroke-width="1"/>
      <path id="Path_260" data-name="Path 260" d="M-247.367,718.765l5.816-5.816" transform="translate(247.367 -712.949)" fill="none" stroke="#373737" stroke-linecap="round" stroke-linejoin="round" stroke-width="1"/>
    </g>
  </g>
</svg>
