<svg xmlns="http://www.w3.org/2000/svg" width="251.202" height="46.509" viewBox="0 0 251.202 46.509">
  <path id="voucher-F2-right" d="M1517.515,734.94a.562.562,0,0,1,.326.128.006.006,0,0,0,.009,0v-1.47l-.1,0a4.5,4.5,0,0,1-4.546-4.442c0-.033,0-.063,0-.094H1271.286c0,.031,0,.061,0,.094a4.494,4.494,0,0,1-4.544,4.442l-.1,0v1.515s.005.006.01,0a.55.55,0,0,1,.951.391v2.005a.549.549,0,0,1-.951.39.006.006,0,0,0-.01.005v3.467c0,.006.005.007.01,0a.549.549,0,0,1,.951.39v2.006a.55.55,0,0,1-.951.39.006.006,0,0,0-.01,0v3.468s.005.006.01,0a.55.55,0,0,1,.951.39v2.006a.55.55,0,0,1-.951.39.006.006,0,0,0-.01,0v3.468a.006.006,0,0,0,.01,0,.549.549,0,0,1,.951.39v2.006a.551.551,0,0,1-.951.39s-.01,0-.01,0v3.469a.005.005,0,0,0,.01,0,.55.55,0,0,1,.951.39v2.006a.55.55,0,0,1-.951.391s-.01,0-.01,0v3.467a.006.006,0,0,0,.01,0,.549.549,0,0,1,.951.39v2.006a.551.551,0,0,1-.951.39s-.01,0-.01,0v1.821c.032,0,.063,0,.1,0a4.5,4.5,0,0,1,4.544,4.443c0,.031,0,.063,0,.1H1513.21c0-.032,0-.064,0-.1a4.5,4.5,0,0,1,4.546-4.443c.032,0,.065,0,.1,0v-1.777a.005.005,0,0,0-.009,0,.558.558,0,0,1-.326.127.574.574,0,0,1-.579-.578v-1.973a.551.551,0,0,1,.9-.45.005.005,0,0,0,.009,0v-3.381a.006.006,0,0,0-.009,0,.543.543,0,0,1-.326.127.573.573,0,0,1-.579-.577v-1.974a.574.574,0,0,1,.579-.578.56.56,0,0,1,.326.128.006.006,0,0,0,.009,0v-3.38a.006.006,0,0,0-.009-.005.547.547,0,0,1-.326.129.574.574,0,0,1-.579-.578V754.3a.551.551,0,0,1,.9-.45.005.005,0,0,0,.009,0V750.47a.006.006,0,0,0-.009,0,.549.549,0,0,1-.326.127.573.573,0,0,1-.579-.577v-1.974a.576.576,0,0,1,.579-.579.569.569,0,0,1,.326.129.006.006,0,0,0,.009,0v-3.38a.006.006,0,0,0-.009,0,.556.556,0,0,1-.326.129.576.576,0,0,1-.579-.579V741.78a.551.551,0,0,1,.9-.449.006.006,0,0,0,.009,0v-3.381a.005.005,0,0,0-.009,0,.562.562,0,0,1-.326.128.575.575,0,0,1-.579-.578v-1.974a.574.574,0,0,1,.579-.578" transform="translate(-1266.648 -729.059)" fill="#f2f2f2"/>
</svg>
