<svg xmlns="http://www.w3.org/2000/svg" width="89.299" height="46.509" viewBox="0 0 89.299 46.509">
  <path id="voucher-F2-left" d="M1248.633,734.94a.476.476,0,0,1,.3.128s.008,0,.008,0v-1.47l-.087,0a4.3,4.3,0,0,1-4.132-4.442c0-.033,0-.063,0-.094h-80.862c0,.031,0,.061,0,.094a4.3,4.3,0,0,1-4.132,4.442l-.089,0v1.515a0,0,0,0,0,.008,0,.477.477,0,0,1,.514-.148.552.552,0,0,1,.352.539v2.005a.555.555,0,0,1-.352.54.478.478,0,0,1-.514-.15s-.008,0-.008.005v3.467a0,0,0,0,0,.008,0,.479.479,0,0,1,.514-.15.555.555,0,0,1,.352.54v2.006a.554.554,0,0,1-.352.539.478.478,0,0,1-.514-.149,0,0,0,0,0-.008,0v3.468a0,0,0,0,0,.008,0,.477.477,0,0,1,.514-.148.553.553,0,0,1,.352.538v2.006a.554.554,0,0,1-.352.539.476.476,0,0,1-.514-.149,0,0,0,0,0-.008,0v3.468a0,0,0,0,0,.008,0,.478.478,0,0,1,.514-.15.555.555,0,0,1,.352.54v2.006a.552.552,0,0,1-.352.538.475.475,0,0,1-.514-.148,0,0,0,0,0-.008,0v3.469s.006.007.008,0a.479.479,0,0,1,.514-.149.555.555,0,0,1,.352.539v2.006a.555.555,0,0,1-.352.54.481.481,0,0,1-.514-.149,0,0,0,0,0-.008,0v3.467c0,.006.006.008.008,0a.48.48,0,0,1,.514-.15.555.555,0,0,1,.352.54v2.006a.553.553,0,0,1-.352.538.475.475,0,0,1-.514-.148,0,0,0,0,0-.008,0v1.821c.03,0,.059,0,.089,0a4.3,4.3,0,0,1,4.132,4.443c0,.031,0,.063,0,.1h80.862c0-.032,0-.064,0-.1a4.3,4.3,0,0,1,4.132-4.443c.029,0,.059,0,.087,0v-1.777c0-.006,0-.008-.008,0a.472.472,0,0,1-.3.127.55.55,0,0,1-.527-.578v-1.973a.55.55,0,0,1,.527-.579.485.485,0,0,1,.3.128s.008,0,.008,0v-3.381s0-.007-.008,0a.46.46,0,0,1-.3.127.548.548,0,0,1-.527-.577v-1.974a.549.549,0,0,1,.527-.578.475.475,0,0,1,.3.128s.008,0,.008,0v-3.38c0-.006,0-.008-.008-.005a.464.464,0,0,1-.3.129.549.549,0,0,1-.527-.578V754.3a.55.55,0,0,1,.527-.578.486.486,0,0,1,.3.128s.008,0,.008,0V750.47s0-.007-.008,0a.465.465,0,0,1-.3.127.549.549,0,0,1-.527-.577v-1.974a.551.551,0,0,1,.527-.579.482.482,0,0,1,.3.129s.008,0,.008,0v-3.38c0-.006,0-.008-.008,0a.471.471,0,0,1-.3.129.551.551,0,0,1-.527-.579V741.78a.55.55,0,0,1,.527-.578.486.486,0,0,1,.3.128s.008,0,.008,0v-3.381s0-.008-.008,0a.476.476,0,0,1-.3.128.55.55,0,0,1-.527-.578v-1.974a.55.55,0,0,1,.527-.578" transform="translate(-1159.638 -729.059)" fill="#f2f2f2"/>
</svg>
