<svg xmlns="http://www.w3.org/2000/svg" width="107.009" height="47.804" viewBox="0 0 107.009 47.804">
  <path id="voucher-F5-left" d="M1266.283,735.1a.619.619,0,0,1,.354.132c.005,0,.01,0,.01-.005V733.72l-.1,0a4.77,4.77,0,0,1-4.952-4.566c0-.034,0-.065,0-.1h-96.9c0,.032,0,.063,0,.1a4.771,4.771,0,0,1-4.952,4.566l-.106,0v1.557c0,.005.007.006.01,0a.632.632,0,0,1,.616-.152.573.573,0,0,1,.422.554v2.061a.576.576,0,0,1-.422.555.633.633,0,0,1-.616-.154.006.006,0,0,0-.01.005v3.564a.006.006,0,0,0,.01,0,.635.635,0,0,1,.616-.154.576.576,0,0,1,.422.555v2.062a.575.575,0,0,1-.422.554.633.633,0,0,1-.616-.153.006.006,0,0,0-.01,0v3.565c0,.005.007.006.01,0a.632.632,0,0,1,.616-.152.574.574,0,0,1,.422.553v2.062a.575.575,0,0,1-.422.554.63.63,0,0,1-.616-.153.006.006,0,0,0-.01,0v3.565a.006.006,0,0,0,.01,0,.633.633,0,0,1,.616-.154.576.576,0,0,1,.422.555v2.062a.573.573,0,0,1-.422.553.63.63,0,0,1-.616-.152s-.01,0-.01,0v3.566a.006.006,0,0,0,.01,0,.635.635,0,0,1,.616-.153.576.576,0,0,1,.422.554v2.062a.576.576,0,0,1-.422.555.637.637,0,0,1-.616-.153.006.006,0,0,0-.01,0v3.564a.006.006,0,0,0,.01.005.635.635,0,0,1,.616-.154.576.576,0,0,1,.422.555v2.062a.575.575,0,0,1-.422.553.63.63,0,0,1-.616-.152s-.01,0-.01,0V772.2c.036,0,.071,0,.106,0a4.773,4.773,0,0,1,4.952,4.567c0,.032,0,.065,0,.1h96.9c0-.033,0-.066,0-.1a4.771,4.771,0,0,1,4.952-4.567c.035,0,.07,0,.1,0v-1.826c0-.006-.005-.008-.01,0a.618.618,0,0,1-.354.131.609.609,0,0,1-.632-.594v-2.028a.609.609,0,0,1,.632-.595.634.634,0,0,1,.354.132c.005,0,.01,0,.01,0v-3.475c0-.005-.005-.007-.01,0a.6.6,0,0,1-.354.131.607.607,0,0,1-.632-.593v-2.029a.609.609,0,0,1,.632-.594.62.62,0,0,1,.354.132c.005,0,.01,0,.01-.005V757.5c0-.006-.005-.008-.01-.005a.607.607,0,0,1-.986-.462v-2.029a.609.609,0,0,1,.632-.594.634.634,0,0,1,.354.132c.005,0,.01,0,.01,0v-3.475c0-.005-.005-.007-.01,0a.608.608,0,0,1-.986-.462v-2.029a.611.611,0,0,1,.632-.595.627.627,0,0,1,.354.133c.005,0,.01,0,.01-.005V744.63c0-.006-.005-.008-.01-.005a.606.606,0,0,1-.986-.462v-2.029a.609.609,0,0,1,.632-.594.634.634,0,0,1,.354.132c.005,0,.01,0,.01,0v-3.475c0-.005-.005-.008-.01,0a.619.619,0,0,1-.354.132.609.609,0,0,1-.632-.594V735.7a.609.609,0,0,1,.632-.594" transform="translate(-1159.638 -729.059)" fill="#f5f5f5"/>
</svg>
