<svg xmlns="http://www.w3.org/2000/svg" width="317.991" height="47.804" viewBox="0 0 317.991 47.804">
  <path id="voucher-F5-right" d="M1584.215,735.1a.806.806,0,0,1,.412.132c.005,0,.012,0,.012-.005V733.72l-.123,0c-3.177,0-5.754-2.044-5.754-4.566,0-.034,0-.065,0-.1H1272.519c0,.032,0,.063,0,.1,0,2.522-2.575,4.566-5.752,4.566l-.123,0v1.557c0,.005.007.006.012,0a.817.817,0,0,1,.714-.152.592.592,0,0,1,.49.554v2.061a.6.6,0,0,1-.49.555.817.817,0,0,1-.714-.154c-.005,0-.012,0-.012.005v3.564c0,.006.007.007.012,0a.821.821,0,0,1,.714-.154.6.6,0,0,1,.49.555v2.062a.594.594,0,0,1-.49.554.817.817,0,0,1-.714-.153c-.005,0-.012,0-.012,0v3.565c0,.005.007.006.012,0a.817.817,0,0,1,.714-.152.593.593,0,0,1,.49.553v2.062a.594.594,0,0,1-.49.554.814.814,0,0,1-.714-.153c-.005,0-.012,0-.012,0v3.565c0,.005.007.007.012,0a.817.817,0,0,1,.714-.154.6.6,0,0,1,.49.555v2.062a.592.592,0,0,1-.49.553.814.814,0,0,1-.714-.152c-.005,0-.012,0-.012,0v3.566s.007.007.012,0a.82.82,0,0,1,.714-.153.594.594,0,0,1,.49.554v2.062a.6.6,0,0,1-.49.555.824.824,0,0,1-.714-.153c-.005,0-.012,0-.012,0v3.564c0,.006.007.008.012.005a.82.82,0,0,1,.714-.154.6.6,0,0,1,.49.555v2.062a.593.593,0,0,1-.49.553.814.814,0,0,1-.714-.152c-.005,0-.012,0-.012,0V772.2c.04,0,.08,0,.123,0,3.177,0,5.752,2.046,5.752,4.567,0,.032,0,.065,0,.1h306.247c0-.033,0-.066,0-.1,0-2.521,2.577-4.567,5.754-4.567.04,0,.083,0,.123,0v-1.826c0-.006-.007-.008-.012,0a.805.805,0,0,1-.412.131.67.67,0,0,1-.733-.594v-2.028a.669.669,0,0,1,.733-.595.825.825,0,0,1,.412.132.007.007,0,0,0,.012,0v-3.475c0-.005-.007-.007-.012,0a.778.778,0,0,1-.412.131.668.668,0,0,1-.733-.593v-2.029a.669.669,0,0,1,.733-.594.806.806,0,0,1,.412.132c.005,0,.012,0,.012-.005V757.5c0-.006-.007-.008-.012-.005a.787.787,0,0,1-.412.132.669.669,0,0,1-.733-.594v-2.029a.67.67,0,0,1,.733-.594.825.825,0,0,1,.412.132.007.007,0,0,0,.012,0v-3.475c0-.005-.007-.007-.012,0a.787.787,0,0,1-.412.131.669.669,0,0,1-.733-.593v-2.029a.671.671,0,0,1,.733-.595.816.816,0,0,1,.412.133c.005,0,.012,0,.012-.005V744.63c0-.006-.007-.008-.012-.005a.8.8,0,0,1-.412.133.672.672,0,0,1-.733-.595v-2.029a.67.67,0,0,1,.733-.594.825.825,0,0,1,.412.132c.005,0,.012,0,.012,0v-3.475a.007.007,0,0,0-.012,0,.806.806,0,0,1-.412.132.67.67,0,0,1-.733-.594V735.7a.67.67,0,0,1,.733-.594" transform="translate(-1266.648 -729.059)" fill="#f5f5f5"/>
</svg>
